<?xml version="1.0" encoding="UTF-8"?>
<svg version="1.1" xmlns="http://www.w3.org/2000/svg" width="504" height="281">
<path d="M0 0 C166.32 0 332.64 0 504 0 C504 92.73 504 185.46 504 281 C337.68 281 171.36 281 0 281 C0 188.27 0 95.54 0 0 Z " fill="#13232B" transform="translate(0,0)"/>
<path d="M0 0 C137.94 0 275.88 0 418 0 C418 27.39 418 54.78 418 83 C280.06 83 142.12 83 0 83 C0 55.61 0 28.22 0 0 Z " fill="#17262B" transform="translate(39,99)"/>
<path d="M0 0 C4.62 0 9.24 0 14 0 C14 92.73 14 185.46 14 281 C-152.32 281 -318.64 281 -490 281 C-490 279.02 -490 277.04 -490 275 C-489.21157715 275.64743164 -488.4231543 276.29486328 -487.61083984 276.96191406 C-483.36045454 279.7787393 -479.19310521 279.6025012 -474.2265625 279.609375 C-473.3028183 279.62591125 -472.3790741 279.64244751 -471.42733765 279.65948486 C-468.4931567 279.70785236 -465.55949362 279.72931083 -462.625 279.75 C-460.62888035 279.77816909 -458.63278471 279.80809782 -456.63671875 279.83984375 C-451.75785515 279.91360839 -446.87927714 279.96325178 -442 280 C-442 278.68 -442 277.36 -442 276 C-331.45 276 -220.9 276 -107 276 C-107 274.02 -107 272.04 -107 270 C-105.33237678 266.50593231 -104.25993978 265.17329319 -101 263 C-98.01972961 262.75949097 -98.01972961 262.75949097 -94.32543945 262.77294922 C-93.652005 262.77265717 -92.97857056 262.77236511 -92.284729 262.77206421 C-90.06078161 262.77345656 -87.83717005 262.78901297 -85.61328125 262.8046875 C-84.07057376 262.80841797 -82.5278639 262.81126478 -80.9851532 262.81326294 C-76.92611136 262.82089671 -72.8672128 262.84054294 -68.80822754 262.8626709 C-64.6657912 262.88313488 -60.5233317 262.89226584 -56.38085938 262.90234375 C-48.25384052 262.92378912 -40.12693809 262.95792192 -32 263 C-32 262.01 -32 261.02 -32 260 C-32.66 260 -33.32 260 -34 260 C-34 259.34 -34 258.68 -34 258 C-32.68 257.67 -31.36 257.34 -30 257 C-30 258.98 -30 260.96 -30 263 C-28.68 263 -27.36 263 -26 263 C-26.33 261.35 -26.66 259.7 -27 258 C-25.68 257.67 -24.36 257.34 -23 257 C-23 258.98 -23 260.96 -23 263 C-20.69 263 -18.38 263 -16 263 C-16.33 262.34 -16.66 261.68 -17 261 C-19.02463255 260.34786708 -19.02463255 260.34786708 -21 260 C-15.25 257 -15.25 257 -13 257 C-13 258.65 -13 260.3 -13 262 C-11.02 261.67 -9.04 261.34 -7 261 C-7 260.34 -7 259.68 -7 259 C-8.32 259.33 -9.64 259.66 -11 260 C-10.67 259.01 -10.34 258.02 -10 257 C-8.35 257.33 -6.7 257.66 -5 258 C-5 259.32 -5 260.64 -5 262 C-1.04 262.33 2.92 262.66 7 263 C7.11404978 230.61667006 7.20254146 198.23339796 7.25532665 165.84991305 C7.26158022 162.02722035 7.26805183 158.20452805 7.2746582 154.38183594 C7.27596976 153.62080303 7.27728131 152.85977013 7.2786326 152.07567562 C7.30039237 139.75123443 7.33981701 127.42690978 7.38576398 115.10253774 C7.43251279 102.45767727 7.46029205 89.81287787 7.47044247 77.16793454 C7.47730494 69.36453321 7.4989832 61.56146131 7.53958233 53.75816138 C7.56912341 47.77571154 7.57227815 41.79354539 7.56553841 35.81101418 C7.56691614 33.35597644 7.57689081 30.90092645 7.59602737 28.44596291 C7.62085184 25.09761793 7.61494254 21.75069001 7.60127258 18.40231323 C7.61583679 17.42759847 7.630401 16.4528837 7.64540654 15.44863212 C7.59635246 11.01287038 7.46368231 7.98422723 4.58742046 4.47485542 C3.73357171 3.65815313 2.87972296 2.84145084 2 2 C1.34 1.34 0.68 0.68 0 0 Z " fill="#858584" transform="translate(490,0)"/>
<path d="M0 0 C4.62 0 9.24 0 14 0 C14 92.73 14 185.46 14 281 C-152.32 281 -318.64 281 -490 281 C-490 279.02 -490 277.04 -490 275 C-488.77134568 275.9746 -488.77134568 275.9746 -487.51787007 276.96888888 C-483.74597736 279.46441816 -480.13247624 279.55557535 -475.7140789 279.49777794 C-474.89118136 279.50299251 -474.06828382 279.50820708 -473.22044998 279.51357967 C-470.45694811 279.52619458 -467.69435272 279.51024587 -464.93087769 279.49447632 C-462.93214332 279.49765232 -460.9334111 279.50257933 -458.93468487 279.50910914 C-453.43749731 279.52195287 -447.94060371 279.50978718 -442.44343543 279.49358058 C-436.51701897 279.48043894 -430.59063571 279.49032079 -424.66421509 279.49734497 C-413.72437045 279.50685208 -402.78463032 279.49832913 -391.84479791 279.48084027 C-381.73999155 279.46480563 -371.63521848 279.45703367 -361.53039932 279.45738602 C-360.86040042 279.45740131 -360.19040151 279.4574166 -359.50009961 279.45743235 C-356.78044996 279.45751417 -354.06080033 279.45764539 -351.34115068 279.45784398 C-325.82549809 279.45965638 -300.30990486 279.43976213 -274.79427286 279.40898465 C-252.11593238 279.38173042 -229.43763407 279.36926233 -206.75927734 279.37060547 C-205.30284512 279.37068629 -203.84641289 279.37076701 -202.38998066 279.37084763 C-201.66995401 279.37088833 -200.94992737 279.37092903 -200.20808173 279.37097096 C-196.58370241 279.37117255 -192.95932309 279.37135372 -189.33494377 279.37151146 C-188.61993705 279.37154489 -187.90493034 279.37157831 -187.16825675 279.37161275 C-168.22692869 279.37234276 -149.28560591 279.36326956 -130.34428227 279.35085833 C-129.67069183 279.35041779 -128.9971014 279.34997724 -128.30309913 279.34952335 C-125.59434252 279.34774686 -122.88558591 279.34597007 -120.17682933 279.34414144 C-110.74575744 279.33781772 -101.31468972 279.33480243 -91.88361585 279.33391846 C-79.73264267 279.33272531 -67.58170582 279.32453056 -55.43074737 279.30505554 C-49.56907713 279.29580258 -43.70744984 279.28973481 -37.84577179 279.29224396 C-32.48570522 279.29442719 -27.12573383 279.28743937 -21.76568712 279.27294691 C-19.82099325 279.26930778 -17.8762896 279.26907172 -15.93159531 279.27248149 C-13.2990288 279.27658811 -10.66677777 279.26852498 -8.03423882 279.25726891 C-7.26995876 279.26137954 -6.50567871 279.26549018 -5.71823865 279.26972538 C-2.01201118 279.24055293 0.91716425 279.18406627 4 277 C7.70195624 271.72519731 7.42733935 266.52583813 7.39440918 260.33435059 C7.40354584 258.72204945 7.40354584 258.72204945 7.41286707 257.07717657 C7.42951729 253.4751718 7.42471825 249.87351975 7.41992188 246.27148438 C7.42726091 243.68923067 7.43584666 241.10698026 7.44558716 238.5247345 C7.46662567 232.23894737 7.47118298 225.95325251 7.46939927 219.66743433 C7.46809108 214.55844479 7.47189869 209.44948401 7.47932434 204.34049988 C7.48142355 202.86827453 7.48352115 201.39604918 7.48561716 199.92382383 C7.48666069 199.19104166 7.48770422 198.4582595 7.48877937 197.70327181 C7.50767467 183.84978348 7.50663345 169.99634812 7.49981004 156.14285225 C7.49423258 143.46957889 7.51506984 130.79650756 7.54817051 118.12328142 C7.58190175 105.10756224 7.59707673 92.09193987 7.59245348 79.07617617 C7.59020853 71.76988155 7.5954558 64.46377375 7.62034607 57.15751648 C7.64354609 50.28902589 7.64078349 43.42096326 7.62041855 36.55246544 C7.61699842 34.02971255 7.62214039 31.50693159 7.63640213 28.98421669 C7.65451008 25.54419828 7.64190656 22.10562323 7.62145996 18.66564941 C7.63397781 17.66389978 7.64649566 16.66215014 7.65939283 15.63004446 C7.60205322 11.14025024 7.49965911 8.01409133 4.58615875 4.45839691 C3.73272636 3.64712593 2.87929398 2.83585495 2 2 C1.34 1.34 0.68 0.68 0 0 Z " fill="#FEFEFE" transform="translate(490,0)"/>
<path d="M0 0 C5.77922191 3.20760642 9.81005132 8.18260264 12.75 14.0625 C13.98732484 30.65482324 13.98732484 30.65482324 8.75 37.0625 C3.86875967 42.27608009 -0.54261566 45.74491035 -7.85546875 46.23828125 C-15.86412934 46.44363152 -21.94653131 45.31539058 -28.25 40.0625 C-33.64083948 32.2966753 -36.32256986 26.59234481 -35.25 17.0625 C-32.53536927 8.52906438 -27.58635289 3.56424205 -20 -0.8125 C-13.02264569 -2.90570629 -6.73370706 -2.96201117 0 0 Z " fill="#E7E9E7" transform="translate(443.25,25.9375)"/>
<path d="M0 0 C0.6911087 0.01640533 1.38221741 0.03281067 2.0942688 0.04971313 C3.2048616 0.0462085 3.2048616 0.0462085 4.33789062 0.04263306 C6.77401311 0.04102393 9.20822124 0.07498338 11.64407349 0.10977173 C13.33846351 0.11656281 15.03286299 0.12128401 16.7272644 0.12402344 C20.27142903 0.13468723 23.81496061 0.16135383 27.35891724 0.20108032 C31.91110608 0.25210239 36.46293223 0.27711704 41.01536942 0.29201698 C45.3499881 0.30677225 49.68452083 0.33201365 54.01907349 0.35977173 C54.85037025 0.3646825 55.68166702 0.36959328 56.5381546 0.37465286 C58.87726834 0.39085739 61.21618433 0.41425728 63.5552063 0.44033813 C64.25441193 0.44459808 64.95361755 0.44885803 65.67401123 0.45324707 C70.4508241 0.51808484 70.4508241 0.51808484 71.56594849 1.63320923 C71.56594849 8.23320923 71.56594849 14.83320923 71.56594849 21.63320923 C44.50594849 21.63320923 17.44594849 21.63320923 -10.43405151 21.63320923 C-10.43405151 0.13458667 -10.43405151 0.13458667 0 0 Z " fill="#DBD62E" transform="translate(384.4340515136719,159.36679077148438)"/>
<path d="M0 0 C1.65 0 3.3 0 5 0 C5.33 6.6 5.66 13.2 6 20 C6.99 19.67 7.98 19.34 9 19 C8.34 18.01 7.68 17.02 7 16 C7.19233059 12.92271059 7.5282813 10.74481901 9.1875 8.125 C11.96995744 6.39795745 13.7795729 6.55798059 17 7 C20.375 9 20.375 9 23 11 C23 9.68 23 8.36 23 7 C24.93681161 6.91892417 26.8745934 6.86077525 28.8125 6.8125 C29.89144531 6.77769531 30.97039062 6.74289063 32.08203125 6.70703125 C35 7 35 7 38 10 C38 16.6 38 23.2 38 30 C11.93 30 -14.14 30 -41 30 C-41 29.34 -41 28.68 -41 28 C-37.04 27.67 -33.08 27.34 -29 27 C-30.65 26.67 -32.3 26.34 -34 26 C-33.7525 24.845 -33.505 23.69 -33.25 22.5 C-32.66162718 18.08328135 -33.84406831 15.51482821 -36.08984375 11.76171875 C-37 10 -37 10 -37 7 C-34.6875 6.75 -34.6875 6.75 -32 7 C-30.1875 9 -30.1875 9 -29 11 C-28.34 9.68 -27.68 8.36 -27 7 C-25.35 7 -23.7 7 -22 7 C-22 8.65 -22 10.3 -22 12 C-21.34 11.67 -20.68 11.34 -20 11 C-17.3276379 10.86584528 -14.67749512 10.95681459 -12 11 C-11.87625 11.639375 -11.7525 12.27875 -11.625 12.9375 C-11.41875 13.618125 -11.2125 14.29875 -11 15 C-10.34 15.33 -9.68 15.66 -9 16 C-9.061875 15.071875 -9.12375 14.14375 -9.1875 13.1875 C-9 10 -9 10 -7.8125 8.125 C-5.43963721 6.65218861 -3.74086056 6.77776806 -1 7 C-0.67 4.69 -0.34 2.38 0 0 Z " fill="#303D44" transform="translate(200,120)"/>
<path d="M0 0 C1.86159004 0.00022659 1.86159004 0.00022659 3.76078796 0.00045776 C5.11502238 0.01067098 6.46925516 0.02110297 7.82348633 0.03173828 C9.20925187 0.03546911 10.59502006 0.03831575 11.98078918 0.04031372 C15.62555238 0.0479447 19.27015582 0.06758848 22.91485596 0.08972168 C26.63502847 0.1101917 30.35522684 0.1193179 34.07543945 0.12939453 C41.37303827 0.15083498 48.67050553 0.18496434 55.96801758 0.22705078 C55.96801758 2.20705078 55.96801758 4.18705078 55.96801758 6.22705078 C55.30801758 6.22705078 54.64801758 6.22705078 53.96801758 6.22705078 C54.46301758 7.71205078 54.46301758 7.71205078 54.96801758 9.22705078 C54.96801758 8.56705078 54.96801758 7.90705078 54.96801758 7.22705078 C59.91801758 8.21705078 59.91801758 8.21705078 64.96801758 9.22705078 C64.96801758 9.88705078 64.96801758 10.54705078 64.96801758 11.22705078 C65.95801758 11.22705078 66.94801758 11.22705078 67.96801758 11.22705078 C68.29801758 10.56705078 68.62801758 9.90705078 68.96801758 9.22705078 C70.28801758 9.22705078 71.60801758 9.22705078 72.96801758 9.22705078 C72.96801758 9.88705078 72.96801758 10.54705078 72.96801758 11.22705078 C73.62801758 11.22705078 74.28801758 11.22705078 74.96801758 11.22705078 C74.96801758 10.56705078 74.96801758 9.90705078 74.96801758 9.22705078 C77.30135091 9.22705078 79.63468424 9.22705078 81.96801758 9.22705078 C82.95801758 10.21705078 82.95801758 10.21705078 83.96801758 11.22705078 C86.53863069 11.87472871 86.53863069 11.87472871 88.96801758 12.22705078 C89.29801758 11.23705078 89.62801758 10.24705078 89.96801758 9.22705078 C90.95801758 9.22705078 91.94801758 9.22705078 92.96801758 9.22705078 C92.96801758 10.21705078 92.96801758 11.20705078 92.96801758 12.22705078 C93.95801758 12.55705078 94.94801758 12.88705078 95.96801758 13.22705078 C64.61801758 13.22705078 33.26801758 13.22705078 0.96801758 13.22705078 C4.6014756 11.41032177 8.23044464 9.80833164 11.96801758 8.22705078 C11.37633789 8.31083984 10.7846582 8.39462891 10.17504883 8.48095703 C5.868623 9.03594502 2.21249113 9.4593173 -2.03198242 8.22705078 C-2.36198242 8.88705078 -2.69198242 9.54705078 -3.03198242 10.22705078 C-4.02198242 9.56705078 -5.01198242 8.90705078 -6.03198242 8.22705078 C-5.70198242 7.56705078 -5.37198242 6.90705078 -5.03198242 6.22705078 C-6.02198242 6.72205078 -6.02198242 6.72205078 -7.03198242 7.22705078 C-7.68753361 9.75438313 -7.68753361 9.75438313 -8.03198242 12.22705078 C-7.04198242 12.55705078 -6.05198242 12.88705078 -5.03198242 13.22705078 C-7.34198242 13.22705078 -9.65198242 13.22705078 -12.03198242 13.22705078 C-12.35719483 8.56567288 -11.85149908 5.98640632 -9.03198242 2.22705078 C-5.52555536 -0.11056726 -4.14342292 -0.01680902 0 0 Z " fill="#E4DF2F" transform="translate(395.031982421875,262.77294921875)"/>
<path d="M0 0 C1.06734375 -0.00257812 2.1346875 -0.00515625 3.234375 -0.0078125 C4.91273438 0.00378906 4.91273438 0.00378906 6.625 0.015625 C7.74390625 0.00789063 8.8628125 0.00015625 10.015625 -0.0078125 C11.08296875 -0.00523438 12.1503125 -0.00265625 13.25 0 C14.23226563 0.00225586 15.21453125 0.00451172 16.2265625 0.00683594 C18.625 0.265625 18.625 0.265625 20.625 2.265625 C20.88378906 4.6640625 20.88378906 4.6640625 20.890625 7.640625 C20.89449219 9.24164063 20.89449219 9.24164063 20.8984375 10.875 C20.89070313 11.99390625 20.88296875 13.1128125 20.875 14.265625 C20.88273437 15.38453125 20.89046875 16.5034375 20.8984375 17.65625 C20.89585937 18.72359375 20.89328125 19.7909375 20.890625 20.890625 C20.88836914 21.87289062 20.88611328 22.85515625 20.88378906 23.8671875 C20.625 26.265625 20.625 26.265625 18.625 28.265625 C16.2265625 28.52441406 16.2265625 28.52441406 13.25 28.53125 C12.18265625 28.53382812 11.1153125 28.53640625 10.015625 28.5390625 C8.33726562 28.52746094 8.33726562 28.52746094 6.625 28.515625 C5.50609375 28.52335937 4.3871875 28.53109375 3.234375 28.5390625 C2.16703125 28.53648438 1.0996875 28.53390625 0 28.53125 C-0.98226563 28.52899414 -1.96453125 28.52673828 -2.9765625 28.52441406 C-5.375 28.265625 -5.375 28.265625 -7.375 26.265625 C-7.63378906 23.8671875 -7.63378906 23.8671875 -7.640625 20.890625 C-7.64320313 19.82328125 -7.64578125 18.7559375 -7.6484375 17.65625 C-7.63683594 15.97789063 -7.63683594 15.97789063 -7.625 14.265625 C-7.63273437 13.14671875 -7.64046875 12.0278125 -7.6484375 10.875 C-7.64585937 9.80765625 -7.64328125 8.7403125 -7.640625 7.640625 C-7.63836914 6.65835938 -7.63611328 5.67609375 -7.63378906 4.6640625 C-7.10415251 -0.24456913 -4.21168741 0.00967251 0 0 Z " fill="#101315" transform="translate(469.375,39.734375)"/>
<path d="M0 0 C1.06734375 -0.00257813 2.1346875 -0.00515625 3.234375 -0.0078125 C4.91273438 0.00378906 4.91273438 0.00378906 6.625 0.015625 C7.74390625 0.00789062 8.8628125 0.00015625 10.015625 -0.0078125 C11.08296875 -0.00523437 12.1503125 -0.00265625 13.25 0 C14.23226563 0.00225586 15.21453125 0.00451172 16.2265625 0.00683594 C18.625 0.265625 18.625 0.265625 20.625 2.265625 C20.88378906 4.6640625 20.88378906 4.6640625 20.890625 7.640625 C20.89449219 9.24164062 20.89449219 9.24164062 20.8984375 10.875 C20.89070313 11.99390625 20.88296875 13.1128125 20.875 14.265625 C20.88273437 15.38453125 20.89046875 16.5034375 20.8984375 17.65625 C20.89585937 18.72359375 20.89328125 19.7909375 20.890625 20.890625 C20.88836914 21.87289063 20.88611328 22.85515625 20.88378906 23.8671875 C20.625 26.265625 20.625 26.265625 18.625 28.265625 C16.2265625 28.52441406 16.2265625 28.52441406 13.25 28.53125 C12.18265625 28.53382812 11.1153125 28.53640625 10.015625 28.5390625 C8.33726562 28.52746094 8.33726562 28.52746094 6.625 28.515625 C5.50609375 28.52335937 4.3871875 28.53109375 3.234375 28.5390625 C2.16703125 28.53648438 1.0996875 28.53390625 0 28.53125 C-0.98226563 28.52899414 -1.96453125 28.52673828 -2.9765625 28.52441406 C-5.375 28.265625 -5.375 28.265625 -7.375 26.265625 C-7.63378906 23.8671875 -7.63378906 23.8671875 -7.640625 20.890625 C-7.64320313 19.82328125 -7.64578125 18.7559375 -7.6484375 17.65625 C-7.63683594 15.97789063 -7.63683594 15.97789063 -7.625 14.265625 C-7.63273437 13.14671875 -7.64046875 12.0278125 -7.6484375 10.875 C-7.64585937 9.80765625 -7.64328125 8.7403125 -7.640625 7.640625 C-7.63836914 6.65835937 -7.63611328 5.67609375 -7.63378906 4.6640625 C-7.10415251 -0.24456913 -4.21168741 0.00967251 0 0 Z " fill="#05080A" transform="translate(469.375,7.734375)"/>
<path d="M0 0 C0.495 1.485 0.495 1.485 1 3 C-19.20712227 10.94440916 -19.20712227 10.94440916 -30 12 C-24.62097863 12.19922301 -19.9880617 11.66385 -14.7421875 10.51171875 C-9.87136836 9.60277672 -4.93905217 9.32248107 0 9 C0.14308594 8.38640625 0.28617188 7.7728125 0.43359375 7.140625 C1.0270096 4.89792233 1.90730275 3.03970153 3 1 C3.66 1.33 4.32 1.66 5 2 C5.33333333 3.33333333 5.66666667 4.66666667 6 6 C6.66 6.33 7.32 6.66 8 7 C9.10936562 10.86171577 9.13419022 14.62725595 9.125 18.625 C9.12886719 20.31496094 9.12886719 20.31496094 9.1328125 22.0390625 C9 25 9 25 8 28 C5.31890877 27.63098959 4.24675058 27.2928191 2.47265625 25.1875 C1.53331583 23.73035143 0.59581134 22.2720177 -0.33984375 20.8125 C-3.59859085 17.25471493 -8.30085799 17.86784361 -12.87719727 17.65795898 C-13.95892212 17.61070679 -13.95892212 17.61070679 -15.0625 17.5625 C-22.15191683 17.20753082 -29.02842889 16.38356806 -36 15 C-34.8778018 8.01743345 -32.27796872 3.74349088 -27 -1 C-18.87631502 -5.68614845 -7.5722275 -5.77575516 0 0 Z " fill="#D8D32C" transform="translate(112,121)"/>
<path d="M0 0 C6.29340001 -0.44952857 10.8687356 0.12599759 16 4 C22.78347459 11.37277258 24.4795411 16.25109486 24.26953125 26.2265625 C23.76165551 33.33682286 21.23775103 37.07567432 16.125 41.875 C9.49027109 47.21930457 3.28825406 47.5187699 -5 47 C-6.6727338 46.69858579 -8.34215225 46.37473955 -10 46 C-10 45.34 -10 44.68 -10 44 C-9.01 43.505 -9.01 43.505 -8 43 C-8.66 42.67 -9.32 42.34 -10 42 C-10 41.34 -10 40.68 -10 40 C-9.34 40 -8.68 40 -8 40 C-7.67 39.01 -7.34 38.02 -7 37 C-6.67 36.34 -6.34 35.68 -6 35 C-5.34 35 -4.68 35 -4 35 C-4 33.35 -4 31.7 -4 30 C-3.01 30.33 -2.02 30.66 -1 31 C-1 35.62 -1 40.24 -1 45 C2.96 44.34 6.92 43.68 11 43 C10.34 36.4 9.68 29.8 9 23 C10.32 22.67 11.64 22.34 13 22 C12.68289063 21.43796875 12.36578125 20.8759375 12.0390625 20.296875 C10.93125475 17.84803683 10.61024601 15.91612145 10.375 13.25 C10.30023438 12.45078125 10.22546875 11.6515625 10.1484375 10.828125 C10.09945313 10.22484375 10.05046875 9.6215625 10 9 C9.67 10.98 9.34 12.96 9 15 C8.67 15 8.34 15 8 15 C8 13.35 8 11.7 8 10 C7.01 10 6.02 10 5 10 C5 7.03 5 4.06 5 1 C4.34 1 3.68 1 3 1 C3 3.97 3 6.94 3 10 C2.67 9.01 2.34 8.02 2 7 C1.34 7 0.68 7 0 7 C0 4.69 0 2.38 0 0 Z M6 15 C8 16 8 16 8 16 Z " fill="#F1F4F0" transform="translate(432,25)"/>
<path d="M0 0 C4.79716656 0.58944679 9.23409249 1.54032726 13.8515625 2.9609375 C14.4734848 3.15217194 15.0954071 3.34340637 15.73617554 3.54043579 C17.03946113 3.94291232 18.34191661 4.34808613 19.64355469 4.75585938 C21.62432077 5.37478776 23.60872735 5.98081943 25.59375 6.5859375 C26.86742692 6.98099977 28.1408728 7.37680784 29.4140625 7.7734375 C30.5582666 8.12841309 31.7024707 8.48338867 32.88134766 8.84912109 C35.8637641 9.94972475 38.34303511 11.26865533 41 13 C39.9789114 16.67591895 39.08564783 17.9339798 36 20.3125 C33 22 33 22 31 22 C31 22.66 31 23.32 31 24 C27.98509443 25.00496852 25.95818308 25.10335303 22.8125 25.0625 C21.91144531 25.05347656 21.01039062 25.04445312 20.08203125 25.03515625 C19.39496094 25.02355469 18.70789063 25.01195312 18 25 C18 24.34 18 23.68 18 23 C17.10667969 23.07476562 16.21335937 23.14953125 15.29296875 23.2265625 C9.68144727 22.84047917 6.68456879 18.96632993 3 15 C-0.43194143 10.11208342 -0.34565203 5.76086712 0 0 Z " fill="#C9C82C" transform="translate(76,138)"/>
<path d="M0 0 C0 1.98 0 3.96 0 6 C1.32 6 2.64 6 4 6 C3.67 4.35 3.34 2.7 3 1 C4.32 0.67 5.64 0.34 7 0 C7 1.98 7 3.96 7 6 C9.31 6 11.62 6 14 6 C13.67 5.34 13.34 4.68 13 4 C10.97536745 3.34786708 10.97536745 3.34786708 9 3 C14.75 0 14.75 0 17 0 C17 1.65 17 3.3 17 5 C18.98 4.67 20.96 4.34 23 4 C23 3.34 23 2.68 23 2 C21.68 2.33 20.36 2.66 19 3 C19.33 2.01 19.66 1.02 20 0 C22.475 0.495 22.475 0.495 25 1 C25 2.32 25 3.64 25 5 C25.85464844 5.06058594 26.70929688 5.12117188 27.58984375 5.18359375 C29.24693359 5.30927734 29.24693359 5.30927734 30.9375 5.4375 C32.03964844 5.51871094 33.14179688 5.59992188 34.27734375 5.68359375 C37 6 37 6 38 7 C38.38606152 12.01879978 37.97663853 14.90712202 35 19 C34.01 18.67 33.02 18.34 32 18 C34 15 34 15 35 14 C33.68 14 32.36 14 31 14 C31 14.66 31 15.32 31 16 C30.01 16.33 29.02 16.66 28 17 C28 16.34 28 15.68 28 15 C27.34 15 26.68 15 26 15 C25.67 15.66 25.34 16.32 25 17 C24 18 24 18 21.6875 18.1875 C18.9220797 17.9945637 17.35954949 17.39825155 15 16 C14.34 16.66 13.68 17.32 13 18 C12.01 17.01 11.02 16.02 10 15 C10 15.66 10 16.32 10 17 C6.04 17 2.08 17 -2 17 C-2 16.34 -2 15.68 -2 15 C-2.78375 15 -3.5675 15 -4.375 15 C-5.91666667 15 -7.45833333 15 -9 15 C-9.66 15.66 -10.32 16.32 -11 17 C-11.33 16.01 -11.66 15.02 -12 14 C-11.67 13.34 -11.34 12.68 -11 12 C-10.34 12 -9.68 12 -9 12 C-9 10.02 -9 8.04 -9 6 C-6.69 6 -4.38 6 -2 6 C-2 5.01 -2 4.02 -2 3 C-2.66 3 -3.32 3 -4 3 C-4 2.34 -4 1.68 -4 1 C-2 0 -2 0 0 0 Z " fill="#626123" transform="translate(460,257)"/>
<path d="M0 0 C1.65 0.99 3.3 1.98 5 3 C4.649375 3.515625 4.29875 4.03125 3.9375 4.5625 C2.60725227 8.0211441 3.14392975 10.4440159 4 14 C6.89461901 16.36139302 6.89461901 16.36139302 10.5625 15.8125 C14.25825752 15.35160238 14.25825752 15.35160238 16 12 C16.38499891 10.34450469 16.72793135 8.6777567 17 7 C17.33 7 17.66 7 18 7 C18.4021875 8.423125 18.4021875 8.423125 18.8125 9.875 C19.74986588 13.25267273 19.74986588 13.25267273 23 15 C22 18 22 18 11 25 C54.56 25.33 98.12 25.66 143 26 C143 26.33 143 26.66 143 27 C142.30277958 27.00238835 141.60555916 27.00477671 140.88721085 27.00723743 C123.9282556 27.06635384 106.9694532 27.14188222 90.01065445 27.23571491 C81.80952488 27.28069513 73.60843896 27.3201046 65.40722656 27.34643555 C58.25968062 27.36939767 51.11227253 27.40277554 43.96483588 27.44870156 C40.17972496 27.47265805 36.39475077 27.49137085 32.60956573 27.49761391 C29.04722637 27.50365391 25.48523696 27.52361385 21.92302704 27.55427551 C19.99153206 27.56727001 18.0599554 27.56548283 16.12841797 27.5632782 C14.97859436 27.57581635 13.82877075 27.58835449 12.644104 27.60127258 C11.64488041 27.60588155 10.64565681 27.61049051 9.61615372 27.61523914 C6.55023377 28.06614766 5.15717831 28.78745477 3 31 C2.66619186 34.62563814 2.66619186 34.62563814 3 38 C3.99 38 4.98 38 6 38 C6 36.02 6 34.04 6 32 C6.33 32 6.66 32 7 32 C7 34.31 7 36.62 7 39 C4.33333333 39 1.66666667 39 -1 39 C-2.33981486 39.3062434 -3.67511887 39.63451555 -5 40 C-5 39.34 -5 38.68 -5 38 C-3.68 37.34 -2.36 36.68 -1 36 C-0.67 33.03 -0.34 30.06 0 27 C-26.07 27 -52.14 27 -79 27 C-79 26.67 -79 26.34 -79 26 C-52.93 26 -26.86 26 0 26 C0 23.36 0 20.72 0 18 C-1.65 18 -3.3 18 -5 18 C-5 17.67 -5 17.34 -5 17 C-3.35 17 -1.7 17 0 17 C-0.08378906 16.10796875 -0.16757813 15.2159375 -0.25390625 14.296875 C-0.40666016 12.54117188 -0.40666016 12.54117188 -0.5625 10.75 C-0.71912109 9.00976562 -0.71912109 9.00976562 -0.87890625 7.234375 C-0.98198087 4.48128523 -0.86213473 2.580018 0 0 Z " fill="#10181A" transform="translate(238,124)"/>
<path d="M0 0 C4.35471765 2.87226058 6.04696994 6.51646744 7.5078125 11.375 C8.41756 16.22698666 8.22444744 21.08709489 8 26 C3.46572345 28.19843711 1.56891419 28 -4 28 C-4 22.72 -4 17.44 -4 12 C-6.16756792 12 -8.33553575 12.07154656 -10.5 12.1875 C-14 12 -14 12 -16 10.8125 C-17 9 -17 9 -17.0625 6.5625 C-14.11165244 -0.55425 -6.77954836 -1.26974819 0 0 Z " fill="#1B2A30" transform="translate(435,42)"/>
<path d="M0 0 C1.12347839 0.00607269 1.12347839 0.00607269 2.26965332 0.01226807 C3.03894165 0.01035461 3.80822998 0.00844116 4.60083008 0.00646973 C6.22823412 0.00510799 7.85564902 0.00880368 9.48303223 0.01715088 C11.97855963 0.02785086 14.47336714 0.01725555 16.96887207 0.00445557 C18.54830075 0.00577716 20.12772898 0.00833956 21.70715332 0.01226807 C22.45613892 0.0082196 23.20512451 0.00417114 23.97680664 0 C29.25848089 0.04797064 29.25848089 0.04797064 31.48840332 2.27789307 C31.61340332 5.90289307 31.61340332 5.90289307 31.48840332 9.27789307 C33.79840332 9.27789307 36.10840332 9.27789307 38.48840332 9.27789307 C38.48840332 9.60789307 38.48840332 9.93789307 38.48840332 10.27789307 C34.52840332 10.60789307 30.56840332 10.93789307 26.48840332 11.27789307 C25.99340332 8.80289307 25.99340332 8.80289307 25.48840332 6.27789307 C24.16840332 6.27789307 22.84840332 6.27789307 21.48840332 6.27789307 C21.15840332 6.93789307 20.82840332 7.59789307 20.48840332 8.27789307 C21.80840332 7.94789307 23.12840332 7.61789307 24.48840332 7.27789307 C24.48840332 7.93789307 24.48840332 8.59789307 24.48840332 9.27789307 C22.50840332 9.60789307 20.52840332 9.93789307 18.48840332 10.27789307 C18.48840332 8.62789307 18.48840332 6.97789307 18.48840332 5.27789307 C16.01573567 5.62234187 16.01573567 5.62234187 13.48840332 6.27789307 C13.15840332 6.93789307 12.82840332 7.59789307 12.48840332 8.27789307 C13.47840332 8.27789307 14.46840332 8.27789307 15.48840332 8.27789307 C15.48840332 9.26789307 15.48840332 10.25789307 15.48840332 11.27789307 C13.17840332 11.27789307 10.86840332 11.27789307 8.48840332 11.27789307 C8.48840332 9.29789307 8.48840332 7.31789307 8.48840332 5.27789307 C7.16840332 5.60789307 5.84840332 5.93789307 4.48840332 6.27789307 C4.98340332 8.75289307 4.98340332 8.75289307 5.48840332 11.27789307 C4.16840332 11.27789307 2.84840332 11.27789307 1.48840332 11.27789307 C1.48840332 9.29789307 1.48840332 7.31789307 1.48840332 5.27789307 C0.16840332 5.60789307 -1.15159668 5.93789307 -2.51159668 6.27789307 C-2.51159668 6.93789307 -2.51159668 7.59789307 -2.51159668 8.27789307 C-1.85159668 8.27789307 -1.19159668 8.27789307 -0.51159668 8.27789307 C-0.51159668 9.26789307 -0.51159668 10.25789307 -0.51159668 11.27789307 C-33.18159668 10.78289307 -33.18159668 10.78289307 -66.51159668 10.27789307 C-66.51159668 9.94789307 -66.51159668 9.61789307 -66.51159668 9.27789307 C-47.04159668 9.27789307 -27.57159668 9.27789307 -7.51159668 9.27789307 C-7.51159668 6.96789307 -7.51159668 4.65789307 -7.51159668 2.27789307 C-4.99454863 -0.23915498 -3.43486769 0.03119707 0 0 Z " fill="#0B1314" transform="translate(458.5115966796875,251.72210693359375)"/>
<path d="M0 0 C0.33 0.66 0.66 1.32 1 2 C6.36005331 2.19491103 10.76718186 1.74409449 15.921875 0.2421875 C18.5695519 -0.06637635 19.72731211 0.67888468 22 2 C22.99 2.33 23.98 2.66 25 3 C24.34 3 23.68 3 23 3 C23 3.99 23 4.98 23 6 C26.35143175 4.12403473 26.35143175 4.12403473 28 0 C33.94 1.485 33.94 1.485 40 3 C40 2.34 40 1.68 40 1 C44.95 1.99 44.95 1.99 50 3 C50 3.66 50 4.32 50 5 C50.99 5 51.98 5 53 5 C53.33 4.34 53.66 3.68 54 3 C55.32 3 56.64 3 58 3 C58 3.66 58 4.32 58 5 C58.66 5 59.32 5 60 5 C60 4.34 60 3.68 60 3 C62.33333333 3 64.66666667 3 67 3 C67.99 3.99 67.99 3.99 69 5 C71.57061311 5.64767793 71.57061311 5.64767793 74 6 C74.33 5.01 74.66 4.02 75 3 C75.99 3 76.98 3 78 3 C78 3.99 78 4.98 78 6 C78.99 6.33 79.98 6.66 81 7 C49.65 7 18.3 7 -14 7 C-10.66189518 5.33094759 -7.53842155 4.1258614 -4 3 C-4 2.34 -4 1.68 -4 1 C-2.68 0.67 -1.36 0.34 0 0 Z " fill="#BDBB30" transform="translate(410,269)"/>
<path d="M0 0 C3.67123639 0.01977327 4.15668193 0.29756585 7.1875 2.8125 C8.2084375 4.0809375 8.2084375 4.0809375 9.25 5.375 C9.58 5.705 9.91 6.035 10.25 6.375 C10.96194379 13.49443794 10.96194379 13.49443794 7.875 17.3125 C4.06664721 20.3047772 2.094872 20.75498996 -2.75 20.375 C-6.24406769 18.70737678 -7.57670681 17.63493978 -9.75 14.375 C-10.32609682 9.27242814 -10.32609682 9.27242814 -9.75 6.375 C-7.3125 3.4375 -7.3125 3.4375 -4.75 1.375 C-3.75 0.375 -3.75 0.375 0 0 Z " fill="#353738" transform="translate(475.75,11.625)"/>
<path d="M0 0 C10.2 1.2 10.2 1.2 13 4 C13.07313567 6.53049402 13.09247527 9.03304837 13.0625 11.5625 C13.05798828 12.27341797 13.05347656 12.98433594 13.04882812 13.71679688 C13.03700864 15.47790013 13.01907263 17.23896036 13 19 C13.66 19 14.32 19 15 19 C15 17.35 15 15.7 15 14 C15.99 14 16.98 14 18 14 C18 13.34 18 12.68 18 12 C17.01 12 16.02 12 15 12 C15 11.34 15 10.68 15 10 C16.65 10 18.3 10 20 10 C20.04898438 10.63808594 20.09796875 11.27617187 20.1484375 11.93359375 C20.22320312 12.75988281 20.29796875 13.58617187 20.375 14.4375 C20.44460937 15.26121094 20.51421875 16.08492187 20.5859375 16.93359375 C20.72257812 17.61550781 20.85921875 18.29742187 21 19 C21.66 19.33 22.32 19.66 23 20 C23 18.02 23 16.04 23 14 C23.66 14.33 24.32 14.66 25 15 C25 17.64 25 20.28 25 23 C14.12783362 24.20988559 14.12783362 24.20988559 9.23828125 21.4296875 C5.16259811 17.886201 1.60542771 14.24439719 0 9 C-0.20895135 5.98015554 -0.18121504 3.02025059 0 0 Z " fill="#D8D32C" transform="translate(76,138)"/>
<path d="M0 0 C0 0.33 0 0.66 0 1 C-1.98 1 -3.96 1 -6 1 C-6 3.31 -6 5.62 -6 8 C-5.34 8 -4.68 8 -4 8 C-3.67 6.02 -3.34 4.04 -3 2 C-2.34 2 -1.68 2 -1 2 C-1 4.97 -1 7.94 -1 11 C2.74691447 10.21693046 2.74691447 10.21693046 5 9 C5.33 11.31 5.66 13.62 6 16 C6.33 16 6.66 16 7 16 C7 18.31 7 20.62 7 23 C4.8125 23.8125 4.8125 23.8125 2 24 C1.236875 23.21625 0.47375 22.4325 -0.3125 21.625 C-3.92629714 18.09524465 -6.05794975 18.25129069 -11 18 C-10.01 17.34 -9.02 16.68 -8 16 C-8.33 14.68 -8.66 13.36 -9 12 C-10.94074861 12.27617533 -10.94074861 12.27617533 -13 13 C-13.99 14.485 -13.99 14.485 -15 16 C-15.66 12.7 -16.32 9.4 -17 6 C-17.66 6 -18.32 6 -19 6 C-18 3 -18 3 -15.125 1.3125 C-10.23221102 -0.64870143 -5.180139 -0.25291818 0 0 Z " fill="#C9CBCA" transform="translate(438,24)"/>
<path d="M0 0 C0.33 1.32 0.66 2.64 1 4 C8.32520353 5.62958091 15.50287054 6.32868312 22.98413086 6.57006836 C33.11448901 6.98622295 33.11448901 6.98622295 36.72265625 10.83984375 C37.16480469 11.53207031 37.60695312 12.22429687 38.0625 12.9375 C40.37768827 16.3217066 42.39451232 17.98516865 46 20 C46 20.99 46 21.98 46 23 C44.35 23 42.7 23 41 23 C40.7525 23.639375 40.505 24.27875 40.25 24.9375 C39 27 39 27 35 28 C36.98 25.36 38.96 22.72 41 20 C36.95524382 18.30883803 32.83574632 16.95033808 28.65234375 15.65234375 C27.95863174 15.43558487 27.26491974 15.21882599 26.55018616 14.99549866 C25.0906388 14.53991176 23.63078887 14.08529317 22.1706543 13.6315918 C19.94048946 12.93842916 17.71139072 12.24191962 15.48242188 11.54492188 C14.05995752 11.10136461 12.63743349 10.6579987 11.21484375 10.21484375 C10.55121323 10.00754135 9.8875827 9.80023895 9.20384216 9.58665466 C6.15332741 8.64017738 3.11114016 7.72617787 0 7 C0 8.98 0 10.96 0 13 C-0.33 13 -0.66 13 -1 13 C-1.33 9.7 -1.66 6.4 -2 3 C-1.34 3 -0.68 3 0 3 C0 2.01 0 1.02 0 0 Z " fill="#1F3024" transform="translate(76,131)"/>
<path d="M0 0 C3.27132607 -0.08081043 6.54066421 -0.14040709 9.8125 -0.1875 C10.74126953 -0.21263672 11.67003906 -0.23777344 12.62695312 -0.26367188 C13.9659668 -0.27817383 13.9659668 -0.27817383 15.33203125 -0.29296875 C16.56530151 -0.31653442 16.56530151 -0.31653442 17.82348633 -0.34057617 C20.52122482 0.08156014 21.38729767 0.83004225 23 3 C23.29296875 5.69921875 23.29296875 5.69921875 23.1875 8.6875 C23.16042969 9.68136719 23.13335937 10.67523438 23.10546875 11.69921875 C23.07066406 12.45847656 23.03585937 13.21773437 23 14 C21.35 14 19.7 14 18 14 C18 11.03 18 8.06 18 5 C16.68 5 15.36 5 14 5 C14 7.97 14 10.94 14 14 C12.35 14 10.7 14 9 14 C9 11.03 9 8.06 9 5 C7.68 5 6.36 5 5 5 C5 7.64 5 10.28 5 13 C3.35 13 1.7 13 0 13 C0 8.71 0 4.42 0 0 Z " fill="#E6E8EA" transform="translate(308,127)"/>
<path d="M0 0 C1.65 0 3.3 0 5 0 C5 6.6 5 13.2 5 20 C-4.20618557 21.45360825 -4.20618557 21.45360825 -7.625 19.5 C-9.49232102 16.10487088 -9.48571008 13.8162935 -9 10 C-7.8125 8.0625 -7.8125 8.0625 -6 7 C-3.3125 6.8125 -3.3125 6.8125 -1 7 C-0.67 4.69 -0.34 2.38 0 0 Z " fill="#F2F5F7" transform="translate(200,120)"/>
<path d="M0 0 C1.98 0 3.96 0 6 0 C6.33 2.97 6.66 5.94 7 9 C7.33 8.34 7.66 7.68 8 7 C10.31 7 12.62 7 15 7 C13.68 8.65 12.36 10.3 11 12 C11.309375 12.763125 11.61875 13.52625 11.9375 14.3125 C12.67893593 16.18789677 13.36228217 18.08684652 14 20 C12.02 20 10.04 20 8 20 C7.67 19.34 7.34 18.68 7 18 C6.34 18.99 5.68 19.98 5 21 C3.35 21 1.7 21 0 21 C0 14.07 0 7.14 0 0 Z " fill="#E0E3E5" transform="translate(400,120)"/>
<path d="M0 0 C1.65 0 3.3 0 5 0 C5.33 1.98 5.66 3.96 6 6 C6.66 6 7.32 6 8 6 C8.33 4.35 8.66 2.7 9 1 C10.32 0.67 11.64 0.34 13 0 C13.99 1.32 14.98 2.64 16 4 C16.66 2.68 17.32 1.36 18 0 C19.65 0 21.3 0 23 0 C22.54554036 1.41791408 22.08625056 2.83428046 21.625 4.25 C21.24214844 5.43335938 21.24214844 5.43335938 20.8515625 6.640625 C20.04826333 8.86627958 19.10288338 10.90931672 18 13 C15.625 12.75 15.625 12.75 13 12 C11.6875 9.9375 11.6875 9.9375 11 8 C10.34 9.65 9.68 11.3 9 13 C7.35 13 5.7 13 4 13 C3.32694982 11.39850114 2.66177773 9.79368971 2 8.1875 C1.62875 7.29417969 1.2575 6.40085938 0.875 5.48046875 C0 3 0 3 0 0 Z " fill="#EFF2F4" transform="translate(348,127)"/>
<path d="M0 0 C15.51 0 31.02 0 47 0 C47 1.32 47 2.64 47 4 C41.11013537 4.07425639 35.22054434 4.12865268 29.33032227 4.16479492 C27.32734428 4.17986465 25.3243992 4.2003241 23.3215332 4.22631836 C20.43953319 4.26278127 17.55797016 4.27974461 14.67578125 4.29296875 C13.78288895 4.30845261 12.88999664 4.32393646 11.970047 4.33988953 C7.1652686 4.34118487 3.89184117 4.17092559 0 1 C0 0.67 0 0.34 0 0 Z " fill="#FA1A38" transform="translate(1,276)"/>
<path d="M0 0 C0 4.29 0 8.58 0 13 C-9.34166146 14.35208258 -9.34166146 14.35208258 -12.30078125 12.76953125 C-14 11 -14 11 -14.49609375 9.0625 C-14.47675781 8.381875 -14.45742188 7.70125 -14.4375 7 C-14.43621094 6.319375 -14.43492187 5.63875 -14.43359375 4.9375 C-12.84944535 -2.1412172 -5.66882994 -0.20007635 0 0 Z " fill="#DADDDF" transform="translate(305,127)"/>
<path d="M0 0 C0.33 0 0.66 0 1 0 C1 4.29 1 8.58 1 13 C1.66 13.33 2.32 13.66 3 14 C2.37351562 14.19335938 1.74703125 14.38671875 1.1015625 14.5859375 C0.28429687 14.84632812 -0.53296875 15.10671875 -1.375 15.375 C-2.18710937 15.63023438 -2.99921875 15.88546875 -3.8359375 16.1484375 C-6.16459185 16.89854283 -6.16459185 16.89854283 -8 19 C-9.98821313 19.39764263 -11.98944339 19.73775349 -14 20 C-14 17.69 -14 15.38 -14 13 C-13.01 13 -12.02 13 -11 13 C-10.67 11.68 -10.34 10.36 -10 9 C-12.97747288 9.7339519 -12.97747288 9.7339519 -14.5 11.5625 C-16 13 -16 13 -19 13 C-17.50228665 8.3707042 -15.4092634 5.4092634 -12 2 C-9.1875 1.625 -9.1875 1.625 -7 2 C-6.67 4.31 -6.34 6.62 -6 9 C-5.34 7.68 -4.68 6.36 -4 5 C-4 6.65 -4 8.3 -4 10 C-2.68 9.67 -1.36 9.34 0 9 C0 6.03 0 3.06 0 0 Z " fill="#F0F3EF" transform="translate(429,27)"/>
<path d="M0 0 C1.9453125 0.37890625 1.9453125 0.37890625 4.5078125 1.94140625 C5.9453125 4.37890625 5.9453125 4.37890625 5.9453125 7.94140625 C4.9453125 11.37890625 4.9453125 11.37890625 3.3203125 13.37890625 C-0.17050537 14.8487243 -2.44617706 14.36304546 -6.0546875 13.37890625 C-8.41077716 11.25082527 -8.96081461 10.0047255 -9.4296875 6.87890625 C-8.54587019 0.98679086 -5.91859316 -0.33851732 0 0 Z " fill="#3F4041" transform="translate(249.0546875,126.62109375)"/>
<path d="M0 0 C4.62 0 9.24 0 14 0 C14 1.65 14 3.3 14 5 C11.03 5 8.06 5 5 5 C5 6.32 5 7.64 5 9 C7.31 9 9.62 9 12 9 C12 10.32 12 11.64 12 13 C9.69 13 7.38 13 5 13 C5 14.98 5 16.96 5 19 C3.35 19 1.7 19 0 19 C0 12.73 0 6.46 0 0 Z " fill="#F3F5F7" transform="translate(264,121)"/>
<path d="M0 0 C8.72084367 8.23635236 8.72084367 8.23635236 9.390625 14.8671875 C9.36441906 16.20369022 9.31727076 17.53993412 9.25 18.875 C9.23195313 19.56335938 9.21390625 20.25171875 9.1953125 20.9609375 C9.14863748 22.6412381 9.07690939 24.32081163 9 26 C7.02 26.99 7.02 26.99 5 28 C4.67 25.03 4.34 22.06 4 19 C2.68 19.33 1.36 19.66 0 20 C-0.33 15.71 -0.66 11.42 -1 7 C-1.66 7 -2.32 7 -3 7 C-3.1875 4.625 -3.1875 4.625 -3 2 C-2.01 1.34 -1.02 0.68 0 0 Z " fill="#D8DAD7" transform="translate(447,29)"/>
<path d="M0 0 C0.33 0.66 0.66 1.32 1 2 C6.36005331 2.19491103 10.76718186 1.74409449 15.921875 0.2421875 C18.5695519 -0.06637635 19.72731211 0.67888468 22 2 C22.99 2.33 23.98 2.66 25 3 C24.34 3.33 23.68 3.66 23 4 C22.67 4.99 22.34 5.98 22 7 C10.12 7 -1.76 7 -14 7 C-10.66189518 5.33094759 -7.53842155 4.1258614 -4 3 C-4 2.34 -4 1.68 -4 1 C-2.68 0.67 -1.36 0.34 0 0 Z " fill="#D6D339" transform="translate(410,269)"/>
<path d="M0 0 C2.375 1.0625 2.375 1.0625 4 3 C4.57491549 6.95254396 4.61372366 9.07941451 2.375 12.4375 C-0.71685231 14.47161336 -2.36367425 14.60605429 -6 14 C-8.375 12.375 -8.375 12.375 -10 10 C-10.61195145 6.3282913 -10.48706506 4.71186432 -8.375 1.625 C-5.30522452 -0.4753727 -3.65443439 -0.53293835 0 0 Z " fill="#EBEEF0" transform="translate(382,127)"/>
<path d="M0 0 C4.62 0 9.24 0 14 0 C14 1.32 14 2.64 14 4 C11.03 4 8.06 4 5 4 C5 5.65 5 7.3 5 9 C7.64 9 10.28 9 13 9 C13 10.32 13 11.64 13 13 C10.36 13 7.72 13 5 13 C5 14.98 5 16.96 5 19 C3.35 19 1.7 19 0 19 C0 12.73 0 6.46 0 0 Z " fill="#F7FBFB" transform="translate(139,121)"/>
<path d="M0 0 C10.41390728 -0.36754967 10.41390728 -0.36754967 12.84375 1.15625 C14.46489067 3.74131215 14.29419981 5.6643388 14.1875 8.6875 C14.16042969 9.68136719 14.13335937 10.67523438 14.10546875 11.69921875 C14.07066406 12.45847656 14.03585938 13.21773437 14 14 C12.35 14 10.7 14 9 14 C8.67 11.36 8.34 8.72 8 6 C7.01 5.67 6.02 5.34 5 5 C5 7.97 5 10.94 5 14 C3.35 14 1.7 14 0 14 C0 9.38 0 4.76 0 0 Z " fill="#E5EAEB" transform="translate(224,127)"/>
<path d="M0 0 C2.3125 -0.25 2.3125 -0.25 5 0 C6.8125 2 6.8125 2 8 4 C8.66 2.68 9.32 1.36 10 0 C11.65 0 13.3 0 15 0 C12.94235079 6.45353615 10.57616518 12.7361263 8 19 C6.35 19 4.7 19 3 19 C3.2475 17.845 3.495 16.69 3.75 15.5 C4.33837282 11.08328135 3.15593169 8.51482821 0.91015625 4.76171875 C0 3 0 3 0 0 Z " fill="#EDF0F3" transform="translate(163,127)"/>
<path d="M0 0 C2.4375 1.75 2.4375 1.75 4 4 C4 5.32 4 6.64 4 8 C2.68 8.33 1.36 8.66 0 9 C0.99 9.99 1.98 10.98 3 12 C-0.49124017 14.32749345 -1.89222251 14.50299316 -6 14 C-8.375 12.4375 -8.375 12.4375 -10 10 C-10.42519574 6.53769185 -10.63902633 4.1652833 -8.9375 1.0625 C-5.8347167 -0.63902633 -3.46230815 -0.42519574 0 0 Z " fill="#DCE1E3" transform="translate(343,127)"/>
<path d="M0 0 C2.375 1.1875 2.375 1.1875 4 3 C4.25 5.6875 4.25 5.6875 4 8 C1.36 8 -1.28 8 -4 8 C-4 8.66 -4 9.32 -4 10 C-2.02 9.67 -0.04 9.34 2 9 C2.33 10.32 2.66 11.64 3 13 C0.11138291 14.44430855 -1.79647701 14.37688506 -5 14 C-7.9375 11.875 -7.9375 11.875 -10 9 C-10 5.7377941 -9.55258481 3.87250234 -7.8125 1.125 C-5.08827656 -0.56589731 -3.14066901 -0.38457172 0 0 Z " fill="#E1E4E7" transform="translate(217,127)"/>
<path d="M0 0 C0.99 0.33 1.98 0.66 3 1 C1.95838798 6.3816621 1.95838798 6.3816621 0 9 C-3.91076537 10.40666289 -7.88183279 10.61644521 -12 11 C-13.69232878 11.3525685 -15.38049792 11.72606361 -17.0625 12.125 C-22.38091368 13.23192187 -27.58974966 13.18514165 -33 13 C-29.83501544 10.89001029 -28.48897934 10.6759645 -24.8125 10.25 C-18.60696812 9.32448058 -13.13139967 7.36273092 -7.3449707 5.03222656 C-4.3993345 3.85324341 -2.20677055 3 1 3 C0.505 1.515 0.505 1.515 0 0 Z " fill="#283720" transform="translate(112,121)"/>
<path d="M0 0 C1.65 0 3.3 0 5 0 C5 6.93 5 13.86 5 21 C3.35 21 1.7 21 0 21 C0 14.07 0 7.14 0 0 Z " fill="#E7EBEA" transform="translate(156,120)"/>
<path d="M0 0 C0.33 1.32 0.66 2.64 1 4 C10.28820348 6.06627421 19.52733516 6.57800555 29 7 C29 7.33 29 7.66 29 8 C25.7 8.33 22.4 8.66 19 9 C20.65 9.99 22.3 10.98 24 12 C20.6252898 13.14184472 18.60566936 12.84408845 15.234375 11.78515625 C14.34492187 11.51123047 13.45546875 11.23730469 12.5390625 10.95507812 C11.61867188 10.66052734 10.69828125 10.36597656 9.75 10.0625 C8.81414062 9.77181641 7.87828125 9.48113281 6.9140625 9.18164062 C4.6063855 8.46343503 2.30206318 7.73596262 0 7 C0 8.98 0 10.96 0 13 C-0.33 13 -0.66 13 -1 13 C-1.33 9.7 -1.66 6.4 -2 3 C-1.34 3 -0.68 3 0 3 C0 2.01 0 1.02 0 0 Z " fill="#505A1F" transform="translate(76,131)"/>
<path d="M0 0 C0.66 0.33 1.32 0.66 2 1 C1.34 3.31 0.68 5.62 0 8 C1.65 8.33 3.3 8.66 5 9 C3.02 9.99 3.02 9.99 1 11 C1 11.66 1 12.32 1 13 C-2.01490557 14.00496852 -4.04181692 14.10335303 -7.1875 14.0625 C-8.53908203 14.04896484 -8.53908203 14.04896484 -9.91796875 14.03515625 C-10.60503906 14.02355469 -11.29210937 14.01195312 -12 14 C-12 13.34 -12 12.68 -12 12 C-9.69 12 -7.38 12 -5 12 C-5.33 8.37 -5.66 4.74 -6 1 C-5.34 1 -4.68 1 -4 1 C-4 1.66 -4 2.32 -4 3 C-3.34 3 -2.68 3 -2 3 C-2 2.34 -2 1.68 -2 1 C-1.34 0.67 -0.68 0.34 0 0 Z " fill="#BABB2F" transform="translate(106,149)"/>
<path d="M0 0 C1.32 0.66 2.64 1.32 4 2 C4 4.64 4 7.28 4 10 C3.67 8.68 3.34 7.36 3 6 C2.01 6 1.02 6 0 6 C0.34227572 8.97065509 0.34227572 8.97065509 1 12 C1.66 12.33 2.32 12.66 3 13 C2.67 14.11375 2.34 15.2275 2 16.375 C0.911357 19.69459717 0.911357 19.69459717 1 22 C1.33 22.33 1.66 22.66 2 23 C2.04080783 24.99958364 2.04254356 27.00045254 2 29 C1.67 29 1.34 29 1 29 C1 27.35 1 25.7 1 24 C0.34 24 -0.32 24 -1 24 C-2.44414385 21.11171229 -1.97280874 18.46958511 -1.83984375 15.2890625 C-2.01791849 12.74389667 -2.72643078 11.18754243 -4 9 C-5.66342837 10.66342837 -5.36048097 12.7825709 -5.5625 15.0625 C-5.64628906 15.98160156 -5.73007812 16.90070312 -5.81640625 17.84765625 C-5.87699219 18.55792969 -5.93757813 19.26820312 -6 20 C-6.33 20 -6.66 20 -7 20 C-7.02705729 18.22925083 -7.04642195 16.45838289 -7.0625 14.6875 C-7.07410156 13.70136719 -7.08570313 12.71523438 -7.09765625 11.69921875 C-7 9 -7 9 -6 6 C-4.68 6 -3.36 6 -2 6 C-1.67 5.01 -1.34 4.02 -1 3 C-0.67 2.01 -0.34 1.02 0 0 Z " fill="#A2A4A2" transform="translate(415,34)"/>
<path d="M0 0 C2.97 0 5.94 0 9 0 C9 1.65 9 3.3 9 5 C8.01 5.33 7.02 5.66 6 6 C5.67 8.31 5.34 10.62 5 13 C3.35 13 1.7 13 0 13 C0 8.71 0 4.42 0 0 Z " fill="#F0F1F4" transform="translate(280,127)"/>
<path d="M0 0 C2.97 0 5.94 0 9 0 C9 1.65 9 3.3 9 5 C8.01 5.33 7.02 5.66 6 6 C5.67 8.31 5.34 10.62 5 13 C3.35 13 1.7 13 0 13 C0 8.71 0 4.42 0 0 Z " fill="#EEF4F4" transform="translate(389,127)"/>
<path d="M0 0 C5.17930997 1.24303439 8.70166639 2.85487785 13 6 C12.6596875 6.8971875 12.6596875 6.8971875 12.3125 7.8125 C12.1578125 8.8953125 12.1578125 8.8953125 12 10 C13.35444301 11.77190909 13.35444301 11.77190909 15 13 C14.67 13.99 14.34 14.98 14 16 C13.1646875 15.01 13.1646875 15.01 12.3125 14 C10.15937692 11.74507789 10.15937692 11.74507789 7.25 11.75 C6.13625 11.87375 6.13625 11.87375 5 12 C4.731875 10.906875 4.46375 9.81375 4.1875 8.6875 C3.08641352 5.26833673 2.57525074 4.22408019 0 2 C0 1.34 0 0.68 0 0 Z " fill="#E0E2E3" transform="translate(8,7)"/>
<path d="M0 0 C0 5.61 0 11.22 0 17 C0.66 17 1.32 17 2 17 C1.67 17.99 1.34 18.98 1 20 C0.01 20.33 -0.98 20.66 -2 21 C-5.62946186 15.55580721 -6.17481595 9.41060985 -5 3 C-1.83647799 0 -1.83647799 0 0 0 Z " fill="#F4F7F3" transform="translate(414,41)"/>
<path d="M0 0 C2.33294775 -0.04241723 4.66702567 -0.04092937 7 0 C8 1 8 1 8.25 4.25 C7.99026663 8.14600061 7.26032469 9.89205355 5 13 C4.01 12.67 3.02 12.34 2 12 C4 9 4 9 5 8 C3.02 8 1.04 8 -1 8 C-0.67 5.36 -0.34 2.72 0 0 Z " fill="#E7DE2D" transform="translate(490,263)"/>
<path d="M0 0 C0.70125 0.7425 1.4025 1.485 2.125 2.25 C4.91588732 5.09535508 4.91588732 5.09535508 8.3125 7.125 C9.6428125 8.053125 9.6428125 8.053125 11 9 C11 9.99 11 10.98 11 12 C9.35 12 7.7 12 6 12 C5.7525 12.639375 5.505 13.27875 5.25 13.9375 C4 16 4 16 0 17 C1.98 14.36 3.96 11.72 6 9 C2.07561214 7.33510818 -1.89100419 6.12795963 -6 5 C-4.68 4.67 -3.36 4.34 -2 4 C-2 3.34 -2 2.68 -2 2 C-1.34 2 -0.68 2 0 2 C0 1.34 0 0.68 0 0 Z " fill="#233324" transform="translate(111,142)"/>
<path d="M0 0 C1.99788438 0.34578768 3.99759451 0.68143549 6 1 C4.88671875 3.48046875 4.88671875 3.48046875 3 6 C0.08203125 6.48828125 0.08203125 6.48828125 -3.1875 6.3125 C-4.27417969 6.26738281 -5.36085938 6.22226562 -6.48046875 6.17578125 C-7.31191406 6.11777344 -8.14335937 6.05976563 -9 6 C-9.33 4.35 -9.66 2.7 -10 1 C-6.18438427 -0.47421517 -3.89659938 -1.33945604 0 0 Z " fill="#B0AF2A" transform="translate(429,270)"/>
<path d="M0 0 C0.66 0 1.32 0 2 0 C2.33 0.66 2.66 1.32 3 2 C8.28 2 13.56 2 19 2 C18.67 2.66 18.34 3.32 18 4 C17.34 3.67 16.68 3.34 16 3 C15.67 3.66 15.34 4.32 15 5 C9.36811901 7.22928622 4.91500464 6.99254046 -1 6 C-1.042721 4.33388095 -1.04063832 2.66617115 -1 1 C-0.67 0.67 -0.34 0.34 0 0 Z " fill="#8B8824" transform="translate(388,269)"/>
<path d="M0 0 C0.66 0 1.32 0 2 0 C2 5.94 2 11.88 2 18 C1.67 18 1.34 18 1 18 C1 16.35 1 14.7 1 13 C0.01 13.33 -0.98 13.66 -2 14 C-2 12.02 -2 10.04 -2 8 C-4.31 8 -6.62 8 -9 8 C-9 7.01 -9 6.02 -9 5 C-6.03 5 -3.06 5 0 5 C0 3.35 0 1.7 0 0 Z " fill="#0D1C24" transform="translate(154,121)"/>
<path d="M0 0 C6.6 0 13.2 0 20 0 C20 0.99 20 1.98 20 3 C14.60539047 5.27141454 9.73842251 5.20413361 4 5 C3.67 4.01 3.34 3.02 3 2 C2.01 1.34 1.02 0.68 0 0 Z " fill="#182931" transform="translate(180,271)"/>
<path d="M0 0 C0.66 0 1.32 0 2 0 C2.33 0.66 2.66 1.32 3 2 C3.33 1.34 3.66 0.68 4 0 C5.65 0 7.3 0 9 0 C9 1.98 9 3.96 9 6 C9.99 5.67 10.98 5.34 12 5 C12.33 3.35 12.66 1.7 13 0 C13.66 0 14.32 0 15 0 C15.125 2.875 15.125 2.875 15 6 C14.34 6.66 13.68 7.32 13 8 C10.5 7.9375 10.5 7.9375 8 7 C6.6875 4.4375 6.6875 4.4375 6 2 C5.7018576 5.7763932 5.7018576 5.7763932 7 8 C5.68 7.34 4.36 6.68 3 6 C2.67 6.66 2.34 7.32 2 8 C1.34 8 0.68 8 0 8 C0 5.36 0 2.72 0 0 Z " fill="#444612" transform="translate(419,168)"/>
<path d="M0 0 C2.97 0.495 2.97 0.495 6 1 C5.67 4.96 5.34 8.92 5 13 C3.35 13 1.7 13 0 13 C0 8.71 0 4.42 0 0 Z " fill="#EFF0F2" transform="translate(308,127)"/>
<path d="M0 0 C2.97 0 5.94 0 9 0 C9 3.11257569 8.82638376 5.10765685 8 8 C5.36 8 2.72 8 0 8 C0 5.36 0 2.72 0 0 Z " fill="#838426" transform="translate(383,168)"/>
<path d="M0 0 C2.97 0 5.94 0 9 0 C9 3.63 9 7.26 9 11 C8.34 11 7.68 11 7 11 C7 8.03 7 5.06 7 2 C5.35 2 3.7 2 2 2 C2 2.66 2 3.32 2 4 C2.99 4 3.98 4 5 4 C5 4.66 5 5.32 5 6 C4.01 6 3.02 6 2 6 C2 7.65 2 9.3 2 11 C1.34 11 0.68 11 0 11 C0 7.37 0 3.74 0 0 Z " fill="#394518" transform="translate(89,146)"/>
<path d="M0 0 C1.93922422 0.45098238 3.87633594 0.91105559 5.8125 1.375 C6.89144531 1.63023437 7.97039062 1.88546875 9.08203125 2.1484375 C12 3 12 3 15 5 C13.68 5 12.36 5 11 5 C11 5.99 11 6.98 11 8 C11.99 8.33 12.98 8.66 14 9 C13.34 9 12.68 9 12 9 C11.67 11.64 11.34 14.28 11 17 C10.34 16.67 9.68 16.34 9 16 C9.33 12.37 9.66 8.74 10 5 C7.03 5 4.06 5 1 5 C0.67 3.35 0.34 1.7 0 0 Z " fill="#BEBE2C" transform="translate(88,141)"/>
<path d="M0 0 C4 0 8 0 12 0 C12 1.32 12 2.64 12 4 C6.95531271 6.21474076 4.14089313 5.85072153 -1 4 C-0.67 2.68 -0.34 1.36 0 0 Z " fill="#1C2C32" transform="translate(264,35)"/>
<path d="M0 0 C2.33333333 0 4.66666667 0 7 0 C7.66 0.66 8.32 1.32 9 2 C11.57061311 2.64767793 11.57061311 2.64767793 14 3 C14.33 2.01 14.66 1.02 15 0 C15.99 0 16.98 0 18 0 C18 0.99 18 1.98 18 3 C18.99 3.33 19.98 3.66 21 4 C12.75 4 4.5 4 -4 4 C-2.68 3.67 -1.36 3.34 0 3 C0 2.01 0 1.02 0 0 Z " fill="#D3CE37" transform="translate(470,272)"/>
<path d="M0 0 C4.95 0 9.9 0 15 0 C15 0.33 15 0.66 15 1 C13.35 1 11.7 1 10 1 C10 5.29 10 9.58 10 14 C9.67 14 9.34 14 9 14 C8.67 10.37 8.34 6.74 8 3 C5.36 3 2.72 3 0 3 C0 2.01 0 1.02 0 0 Z " fill="#0A171E" transform="translate(269,126)"/>
<path d="M0 0 C3.96 0 7.92 0 12 0 C12.33 0.99 12.66 1.98 13 3 C12.67 3.66 12.34 4.32 12 5 C9.69 5 7.38 5 5 5 C5 4.01 5 3.02 5 2 C3.02 2.66 1.04 3.32 -1 4 C-0.67 2.68 -0.34 1.36 0 0 Z " fill="#1E2F38" transform="translate(170,58)"/>
<path d="M0 0 C2.475 0.99 2.475 0.99 5 2 C4.525625 2.391875 4.05125 2.78375 3.5625 3.1875 C1.64820367 5.40808374 1.38733012 7.13375709 1 10 C1.99 10.33 2.98 10.66 4 11 C1.69 11 -0.62 11 -3 11 C-3.32613618 6.32538149 -2.70582788 3.83325617 0 0 Z " fill="#D4D230" transform="translate(386,265)"/>
<path d="M0 0 C4.29 0 8.58 0 13 0 C11.02 0.99 11.02 0.99 9 2 C7.73195434 4.0335948 7.73195434 4.0335948 7 6 C6.67 5.34 6.34 4.68 6 4 C5.01 5.485 5.01 5.485 4 7 C3.01 6.67 2.02 6.34 1 6 C0.67 6.66 0.34 7.32 0 8 C0 5.36 0 2.72 0 0 Z " fill="#7A843A" transform="translate(273,156)"/>
<path d="M0 0 C0.33 0 0.66 0 1 0 C1 4.29 1 8.58 1 13 C1.66 13.33 2.32 13.66 3 14 C-1.455 14.495 -1.455 14.495 -6 15 C-5.67 11.7 -5.34 8.4 -5 5 C-4.67 5 -4.34 5 -4 5 C-4 6.65 -4 8.3 -4 10 C-2.68 9.67 -1.36 9.34 0 9 C0 6.03 0 3.06 0 0 Z " fill="#F8FBF9" transform="translate(429,27)"/>
<path d="M0 0 C1.65 0.33 3.3 0.66 5 1 C5.99 3.97 6.98 6.94 8 10 C3.9472484 10.98248524 0.16138263 11.08159574 -4 11 C-4.33 10.34 -4.66 9.68 -5 9 C-2.03 9 0.94 9 4 9 C3.34 6.69 2.68 4.38 2 2 C1.34 2 0.68 2 0 2 C0 1.34 0 0.68 0 0 Z " fill="#1E2A2D" transform="translate(343,126)"/>
<path d="M0 0 C1.65322266 0.01740234 1.65322266 0.01740234 3.33984375 0.03515625 C4.99693359 0.04869141 4.99693359 0.04869141 6.6875 0.0625 C7.54214844 0.07410156 8.39679688 0.08570312 9.27734375 0.09765625 C8.28734375 0.59265625 8.28734375 0.59265625 7.27734375 1.09765625 C7.27734375 1.75765625 7.27734375 2.41765625 7.27734375 3.09765625 C7.93734375 3.42765625 8.59734375 3.75765625 9.27734375 4.09765625 C8.35501953 4.08025391 8.35501953 4.08025391 7.4140625 4.0625 C6.20169922 4.04896484 6.20169922 4.04896484 4.96484375 4.03515625 C4.16433594 4.02355469 3.36382812 4.01195313 2.5390625 4 C0.10873041 4.0010777 0.10873041 4.0010777 -2.72265625 5.09765625 C-3.28515625 3.16015625 -3.28515625 3.16015625 -3.72265625 1.09765625 C-2.72265625 0.09765625 -2.72265625 0.09765625 0 0 Z " fill="#1C2E32" transform="translate(252.72265625,69.90234375)"/>
<path d="M0 0 C1.98 0 3.96 0 6 0 C6.125 5.75 6.125 5.75 5 8 C3.35 8 1.7 8 0 8 C0 5.36 0 2.72 0 0 Z " fill="#5D663B" transform="translate(248,156)"/>
<path d="M0 0 C2.875 -0.125 2.875 -0.125 6 0 C6.66 0.66 7.32 1.32 8 2 C7.67751743 3.33599921 7.34227417 4.66893378 7 6 C7.38567131 8.68149993 7.38567131 8.68149993 8 11 C7.67 10.34 7.34 9.68 7 9 C3.97065509 8.34227572 3.97065509 8.34227572 1 8 C1.020625 7.05125 1.04125 6.1025 1.0625 5.125 C1.22551826 2.09333717 1.22551826 2.09333717 0 0 Z " fill="#111E13" transform="translate(294,155)"/>
<path d="M0 0 C0.33 0.66 0.66 1.32 1 2 C2.81296615 2.62092718 2.81296615 2.62092718 5 3 C5.9075 3.185625 6.815 3.37125 7.75 3.5625 C8.4925 3.706875 9.235 3.85125 10 4 C10 4.66 10 5.32 10 6 C13.3 6.33 16.6 6.66 20 7 C20 7.33 20 7.66 20 8 C12.7725395 8.24091535 6.09705662 7.34495828 -1 6 C-0.67 4.02 -0.34 2.04 0 0 Z " fill="#B5B62D" transform="translate(77,130)"/>
<path d="M0 0 C4.95 0 9.9 0 15 0 C14.67 0.99 14.34 1.98 14 3 C8.97703996 4.13016601 5.02125926 3.77916092 0 3 C0 2.01 0 1.02 0 0 Z " fill="#1D2D36" transform="translate(209,271)"/>
<path d="M0 0 C1.09054687 0.02320313 2.18109375 0.04640625 3.3046875 0.0703125 C4.40039062 0.08835938 5.49609375 0.10640625 6.625 0.125 C7.46804688 0.14820313 8.31109375 0.17140625 9.1796875 0.1953125 C8.1896875 0.5253125 7.1996875 0.8553125 6.1796875 1.1953125 C6.1796875 3.5053125 6.1796875 5.8153125 6.1796875 8.1953125 C5.8496875 8.1953125 5.5196875 8.1953125 5.1796875 8.1953125 C5.1796875 5.8853125 5.1796875 3.5753125 5.1796875 1.1953125 C2.8696875 1.5253125 0.5596875 1.8553125 -1.8203125 2.1953125 C-1.8203125 3.8453125 -1.8203125 5.4953125 -1.8203125 7.1953125 C-0.8303125 7.5253125 0.1596875 7.8553125 1.1796875 8.1953125 C-0.4703125 7.8653125 -2.1203125 7.5353125 -3.8203125 7.1953125 C-4.4453125 4.8203125 -4.4453125 4.8203125 -4.8203125 2.1953125 C-2.8203125 0.1953125 -2.8203125 0.1953125 0 0 Z " fill="#7C8841" transform="translate(304.8203125,155.8046875)"/>
<path d="M0 0 C3.6413205 -0.33102914 5.41472925 -0.42019439 8.4375 1.75 C8.953125 2.4925 9.46875 3.235 10 4 C9.59765625 6.140625 9.59765625 6.140625 9 8 C7.49460339 7.05016642 5.99579653 6.08988109 4.5 5.125 C3.6646875 4.59132812 2.829375 4.05765625 1.96875 3.5078125 C1.3190625 3.01023438 0.669375 2.51265625 0 2 C0 1.34 0 0.68 0 0 Z " fill="#E6EAEC" transform="translate(245,127)"/>
<path d="M0 0 C0.99 1.32 1.98 2.64 3 4 C3.33 3.34 3.66 2.68 4 2 C6.97 2 9.94 2 13 2 C12.67 3.32 12.34 4.64 12 6 C12 5.01 12 4.02 12 3 C11.67 3.99 11.34 4.98 11 6 C7.37 6 3.74 6 0 6 C0 4.02 0 2.04 0 0 Z " fill="#1D3035" transform="translate(268,68)"/>
<path d="M0 0 C2 2 2 2 2.13525391 3.87939453 C2.08288574 4.62302246 2.03051758 5.36665039 1.9765625 6.1328125 C1.89921875 7.34130859 1.89921875 7.34130859 1.8203125 8.57421875 C1.75585938 9.41597656 1.69140625 10.25773437 1.625 11.125 C1.56828125 11.97449219 1.5115625 12.82398438 1.453125 13.69921875 C1.31149023 15.8001345 1.15695674 17.90017334 1 20 C0.67 20 0.34 20 0 20 C-0.33 15.71 -0.66 11.42 -1 7 C-1.66 7 -2.32 7 -3 7 C-3.1875 4.625 -3.1875 4.625 -3 2 C-2.01 1.34 -1.02 0.68 0 0 Z " fill="#C0C2BF" transform="translate(447,29)"/>
<path d="M0 0 C0.99 0.33 1.98 0.66 3 1 C4.33568021 0.67619874 5.66923011 0.34342449 7 0 C7.66 0.33 8.32 0.66 9 1 C9 1.99 9 2.98 9 4 C9.66 4 10.32 4 11 4 C11.33 3.34 11.66 2.68 12 2 C12 2.99 12 3.98 12 5 C10.52093108 5.02689216 9.04172517 5.04634621 7.5625 5.0625 C6.32693359 5.07990234 6.32693359 5.07990234 5.06640625 5.09765625 C3 5 3 5 2 4 C1.01 4.33 0.02 4.66 -1 5 C-0.67 3.35 -0.34 1.7 0 0 Z " fill="#1D2F35" transform="translate(269,256)"/>
<path d="M0 0 C1.2065625 0.0309375 1.2065625 0.0309375 2.4375 0.0625 C2.7675 1.0525 3.0975 2.0425 3.4375 3.0625 C4.4275 3.3925 5.4175 3.7225 6.4375 4.0625 C6.1075 4.7225 5.7775 5.3825 5.4375 6.0625 C2.7975 6.0625 0.1575 6.0625 -2.5625 6.0625 C-2.94468767 4.40635343 -3.27645102 2.73792976 -3.5625 1.0625 C-2.5625 0.0625 -2.5625 0.0625 0 0 Z " fill="#111F1C" transform="translate(206.5625,156.9375)"/>
<path d="M0 0 C0.66 0.33 1.32 0.66 2 1 C0.35 4.3 -1.3 7.6 -3 11 C-3.66 11 -4.32 11 -5 11 C-5.33 7.7 -5.66 4.4 -6 1 C-5.34 1 -4.68 1 -4 1 C-4 1.66 -4 2.32 -4 3 C-3.34 3 -2.68 3 -2 3 C-2 2.34 -2 1.68 -2 1 C-1.34 0.67 -0.68 0.34 0 0 Z " fill="#414B16" transform="translate(106,149)"/>
<path d="M0 0 C0.66 0 1.32 0 2 0 C2.66 1.32 3.32 2.64 4 4 C5.32 2.68 6.64 1.36 8 0 C8 2.31 8 4.62 8 7 C7.01 7 6.02 7 5 7 C3.32900023 7.31088368 1.66128463 7.64080332 0 8 C0 5.36 0 2.72 0 0 Z " fill="#2B320E" transform="translate(435,168)"/>
<path d="M0 0 C3.96 0 7.92 0 12 0 C10.515 1.485 10.515 1.485 9 3 C9.99 3 10.98 3 12 3 C12 3.66 12 4.32 12 5 C6.72209903 5.50265724 4.13774748 4.25108731 0 1 C0 0.67 0 0.34 0 0 Z " fill="#132227" transform="translate(94,139)"/>
<path d="M0 0 C0.33 0 0.66 0 1 0 C1 4.29 1 8.58 1 13 C-0.65 12.01 -2.3 11.02 -4 10 C-7.20916171 9.74863967 -7.20916171 9.74863967 -10 10 C-10 9.34 -10 8.68 -10 8 C-7.36 8 -4.72 8 -2 8 C-2 6.68 -2 5.36 -2 4 C-1.34 4 -0.68 4 0 4 C0 2.68 0 1.36 0 0 Z " fill="#2E373C" transform="translate(223,127)"/>
<path d="M0 0 C1.32 0.66 2.64 1.32 4 2 C3.34 3.32 2.68 4.64 2 6 C1.67 5.34 1.34 4.68 1 4 C0.34 5.32 -0.32 6.64 -1 8 C-2.32 7.67 -3.64 7.34 -5 7 C-4.67 5.68 -4.34 4.36 -4 3 C-3.01 3 -2.02 3 -1 3 C-0.67 2.01 -0.34 1.02 0 0 Z " fill="#E4E5E4" transform="translate(382,128)"/>
<path d="M0 0 C0.9590625 0.2784375 0.9590625 0.2784375 1.9375 0.5625 C2.9584375 0.7790625 2.9584375 0.7790625 4 1 C4.33 0.67 4.66 0.34 5 0 C7.67058851 -0.14115161 10.32432238 -0.04247107 13 0 C12.67 0.99 12.34 1.98 12 3 C11.0925 3.144375 10.185 3.28875 9.25 3.4375 C6.78523044 3.86409473 4.41152893 4.35074221 2 5 C1 3 1 3 0 0 Z " fill="#1C2C35" transform="translate(154,271)"/>
<path d="M0 0 C0.53625 0.144375 1.0725 0.28875 1.625 0.4375 C4.39915827 1.09453748 7.18525388 1.55219948 10 2 C8.625 4.5 8.625 4.5 7 7 C6.34 7 5.68 7 5 7 C4.67 6.34 4.34 5.68 4 5 C2.68 5.33 1.36 5.66 0 6 C0 4.02 0 2.04 0 0 Z " fill="#606416" transform="translate(425,269)"/>
<path d="M0 0 C1.65 0.33 3.3 0.66 5 1 C5 3.31 5 5.62 5 8 C3.35 8.33 1.7 8.66 0 9 C-0.33 8.01 -0.66 7.02 -1 6 C-0.01 6 0.98 6 2 6 C1.67 5.34 1.34 4.68 1 4 C1.66 4 2.32 4 3 4 C3 3.34 3 2.68 3 2 C1.68 2.33 0.36 2.66 -1 3 C-0.67 2.01 -0.34 1.02 0 0 Z " fill="#DADAD5" transform="translate(480,257)"/>
<path d="M0 0 C-0.99 0.495 -0.99 0.495 -2 1 C-2 1.66 -2 2.32 -2 3 C-1.34 3.33 -0.68 3.66 0 4 C-3.44288812 4.86072203 -5.61345839 4.9831895 -9 4 C-10.32 4 -11.64 4 -13 4 C-12.67 3.01 -12.34 2.02 -12 1 C-12 1.66 -12 2.32 -12 3 C-10.02463255 2.65213292 -10.02463255 2.65213292 -8 2 C-7.67 1.34 -7.34 0.68 -7 0 C-4.3333581 -1.33332095 -2.83319697 -0.67102033 0 0 Z " fill="#1B2E34" transform="translate(243,245)"/>
<path d="M0 0 C4.29 0 8.58 0 13 0 C12.67 0.99 12.34 1.98 12 3 C11.67 2.67 11.34 2.34 11 2 C10.34 3.32 9.68 4.64 9 6 C8.34 5.34 7.68 4.68 7 4 C4.98491642 3.26676204 4.98491642 3.26676204 3 3 C2.67 3.33 2.34 3.66 2 4 C1.34 4 0.68 4 0 4 C0 2.68 0 1.36 0 0 Z " fill="#21323C" transform="translate(174,245)"/>
<path d="M0 0 C0 0.33 0 0.66 0 1 C-7.09326321 2.72330907 -13.70968976 3.2494783 -21 3 C-17.82324554 0.88216369 -15.90535445 0.43448068 -12.1875 -0.1875 C-11.17042969 -0.36667969 -10.15335938 -0.54585937 -9.10546875 -0.73046875 C-5.85944686 -1.01219895 -3.17696951 -0.6695855 0 0 Z " fill="#4E5717" transform="translate(100,131)"/>
<path d="M0 0 C0.33 0 0.66 0 1 0 C1.12117187 0.66386719 1.24234375 1.32773438 1.3671875 2.01171875 C2.22547708 6.53424459 3.03971311 10.79938524 5 15 C4.01 14.67 3.02 14.34 2 14 C1.67 16.31 1.34 18.62 1 21 C0.67 21 0.34 21 0 21 C0 14.07 0 7.14 0 0 Z " fill="#1E282C" transform="translate(161,120)"/>
<path d="M0 0 C2.375 -0.1875 2.375 -0.1875 5 0 C7 3 7 3 7 6 C5.35 6.33 3.7 6.66 2 7 C0.5393715 4.35261084 0 3.10551666 0 0 Z " fill="#E1E4E7" transform="translate(163,127)"/>
<path d="M0 0 C2.31 0 4.62 0 7 0 C6.67 1.65 6.34 3.3 6 5 C3.69 5 1.38 5 -1 5 C-0.67 3.35 -0.34 1.7 0 0 Z " fill="#182832" transform="translate(234,271)"/>
<path d="M0 0 C1.65 0 3.3 0 5 0 C5.33 1.65 5.66 3.3 6 5 C5.195625 5.12375 4.39125 5.2475 3.5625 5.375 C2.2940625 5.684375 2.2940625 5.684375 1 6 C0.67 6.66 0.34 7.32 0 8 C0 5.36 0 2.72 0 0 Z " fill="#778135" transform="translate(225,156)"/>
<path d="M0 0 C0.33 0 0.66 0 1 0 C1 1.98 1 3.96 1 6 C2.65 6 4.3 6 6 6 C5.01 6.495 5.01 6.495 4 7 C4 7.66 4 8.32 4 9 C2.02 9 0.04 9 -2 9 C-2 6.69 -2 4.38 -2 2 C-1.34 2 -0.68 2 0 2 C0 1.34 0 0.68 0 0 Z " fill="#1C2B35" transform="translate(5,5)"/>
<path d="M0 0 C0.66 0 1.32 0 2 0 C2.33 1.98 2.66 3.96 3 6 C0.36 6 -2.28 6 -5 6 C-4.67 4.35 -4.34 2.7 -4 1 C-2.02 1.495 -2.02 1.495 0 2 C0 1.34 0 0.68 0 0 Z " fill="#1D3039" transform="translate(179,255)"/>
<path d="M0 0 C2.64 0 5.28 0 8 0 C8 1.32 8 2.64 8 4 C6.68 4 5.36 4 4 4 C4 4.66 4 5.32 4 6 C2.68 5.34 1.36 4.68 0 4 C0 2.68 0 1.36 0 0 Z " fill="#1D2D33" transform="translate(268,222)"/>
<path d="M0 0 C1.65 0 3.3 0 5 0 C5.33 1.32 5.66 2.64 6 4 C5.195625 4.28875 4.39125 4.5775 3.5625 4.875 C0.8673532 5.73262568 0.8673532 5.73262568 0 8 C0 5.36 0 2.72 0 0 Z " fill="#747F33" transform="translate(232,156)"/>
<path d="M0 0 C1.65 0 3.3 0 5 0 C5.33 1.32 5.66 2.64 6 4 C5.195625 4.28875 4.39125 4.5775 3.5625 4.875 C0.8673532 5.73262568 0.8673532 5.73262568 0 8 C0 5.36 0 2.72 0 0 Z " fill="#73813E" transform="translate(266,156)"/>
<path d="M0 0 C1.32 0.66 2.64 1.32 4 2 C4 2.99 4 3.98 4 5 C2.35 5 0.7 5 -1 5 C-1.2475 5.639375 -1.495 6.27875 -1.75 6.9375 C-3 9 -3 9 -5.078125 9.62890625 C-6.02945313 9.81259766 -6.02945313 9.81259766 -7 10 C-6.57847656 9.44570312 -6.15695313 8.89140625 -5.72265625 8.3203125 C-5.17480469 7.59585938 -4.62695312 6.87140625 -4.0625 6.125 C-3.51722656 5.40570313 -2.97195312 4.68640625 -2.41015625 3.9453125 C-0.96035376 2.05642921 -0.96035376 2.05642921 0 0 Z " fill="#4A5524" transform="translate(118,149)"/>
<path d="M0 0 C0.99 0.33 1.98 0.66 3 1 C2.01 3.31 1.02 5.62 0 8 C-0.99 8 -1.98 8 -3 8 C-3 7.34 -3 6.68 -3 6 C-4.98 6.33 -6.96 6.66 -9 7 C-6.7448078 4.7448078 -4.9952413 4.02276532 -2 3 C-1.01 3 -0.02 3 1 3 C0.67 2.01 0.34 1.02 0 0 Z " fill="#3D491E" transform="translate(112,121)"/>
<path d="M0 0 C3.45925163 1.2491742 6.14693203 2.67527795 9 5 C8.34 6.32 7.68 7.64 7 9 C3.26115668 6.34345343 1.35021826 4.41889613 0 0 Z " fill="#7F888C" transform="translate(12,8)"/>
<path d="M0 0 C3.96 0 7.92 0 12 0 C11.67 0.66 11.34 1.32 11 2 C10.34 1.67 9.68 1.34 9 1 C8.67 1.66 8.34 2.32 8 3 C1.77777778 5 1.77777778 5 0 5 C0 3.35 0 1.7 0 0 Z " fill="#555918" transform="translate(395,271)"/>
<path d="M0 0 C0.33 0 0.66 0 1 0 C1.2954439 5.02254631 0.98514628 7.89542386 -2 12 C-2.99 11.67 -3.98 11.34 -5 11 C-3 8 -3 8 -2 7 C-3.98 7 -5.96 7 -8 7 C-7.67 6.34 -7.34 5.68 -7 5 C-5.02 5 -3.04 5 -1 5 C-0.67 3.35 -0.34 1.7 0 0 Z " fill="#DBD73A" transform="translate(497,264)"/>
<path d="M0 0 C2.89932357 2.39509338 3.50168276 4.31245243 4 8 C3.34 8 2.68 8 2 8 C2 7.34 2 6.68 2 6 C1.01 6 0.02 6 -1 6 C-1 6.66 -1 7.32 -1 8 C-1.66 8 -2.32 8 -3 8 C-2.45276317 4.62537285 -1.9451 2.91765 0 0 Z " fill="#393D12" transform="translate(404,168)"/>
<path d="M0 0 C5.71658336 -0.45732667 8.48649253 0.47726246 13 4 C9.57056481 5.18771723 7.62215325 4.80226223 4.25 3.5625 C3.45078125 3.27503906 2.6515625 2.98757812 1.828125 2.69140625 C1.22484375 2.46324219 0.6215625 2.23507813 0 2 C0 1.34 0 0.68 0 0 Z " fill="#2F3F21" transform="translate(87,139)"/>
<path d="M0 0 C0.99 0 1.98 0 3 0 C3.1953125 6.0546875 3.1953125 6.0546875 3 8 C1 10 1 10 -2.125 10.125 C-3.548125 10.063125 -3.548125 10.063125 -5 10 C-5 9.67 -5 9.34 -5 9 C-3.35 9 -1.7 9 0 9 C0 6.03 0 3.06 0 0 Z " fill="#0F1E21" transform="translate(229,132)"/>
<path d="M0 0 C2.64 0 5.28 0 8 0 C8 1.32 8 2.64 8 4 C5.36 4 2.72 4 0 4 C0 2.68 0 1.36 0 0 Z " fill="#DDE0E2" transform="translate(180,131)"/>
<path d="M0 0 C2.31 0 4.62 0 7 0 C7 0.99 7 1.98 7 3 C6.34 3 5.68 3 5 3 C5 2.34 5 1.68 5 1 C4.34 1 3.68 1 3 1 C3 3.97 3 6.94 3 10 C2.67 9.01 2.34 8.02 2 7 C1.34 7 0.68 7 0 7 C0 4.69 0 2.38 0 0 Z " fill="#F8F9F8" transform="translate(432,25)"/>
<path d="M0 0 C2.31 0.66 4.62 1.32 7 2 C7 3.32 7 4.64 7 6 C5.68 6 4.36 6 3 6 C3 5.01 3 4.02 3 3 C2.34 3 1.68 3 1 3 C1.33 3.99 1.66 4.98 2 6 C1.01 5.67 0.02 5.34 -1 5 C-0.67 3.35 -0.34 1.7 0 0 Z " fill="#1B2D36" transform="translate(171,232)"/>
<path d="M0 0 C0.66 0.99 1.32 1.98 2 3 C1.34 3 0.68 3 0 3 C0.33 3.99 0.66 4.98 1 6 C-2.11257569 6 -4.10765685 5.82638376 -7 5 C-6.3125 3.0625 -6.3125 3.0625 -5 1 C-2.375 0.25 -2.375 0.25 0 0 Z " fill="#1A2D35" transform="translate(167,45)"/>
<path d="M0 0 C1.134375 0.020625 2.26875 0.04125 3.4375 0.0625 C3.7675 1.3825 4.0975 2.7025 4.4375 4.0625 C2.5 4.625 2.5 4.625 0.4375 5.0625 C0.1075 4.7325 -0.2225 4.4025 -0.5625 4.0625 C-1.5525 4.3925 -2.5425 4.7225 -3.5625 5.0625 C-4.125 3.125 -4.125 3.125 -4.5625 1.0625 C-3.5625 0.0625 -3.5625 0.0625 0 0 Z " fill="#1C2C30" transform="translate(281.5625,34.9375)"/>
<path d="M0 0 C2.89932357 2.39509338 3.50168276 4.31245243 4 8 C1.525 7.01 1.525 7.01 -1 6 C-1 6.66 -1 7.32 -1 8 C-1.66 8 -2.32 8 -3 8 C-1.125 1.125 -1.125 1.125 0 0 Z " fill="#323912" transform="translate(396,168)"/>
<path d="M0 0 C1.98 0 3.96 0 6 0 C5.67 2.97 5.34 5.94 5 9 C4.34 8.67 3.68 8.34 3 8 C3 7.01 3 6.02 3 5 C2.34 5 1.68 5 1 5 C0.67 3.35 0.34 1.7 0 0 Z " fill="#F6F7F8" transform="translate(166,133)"/>
<path d="M0 0 C1.98 0.99 3.96 1.98 6 3 C5.67 3.99 5.34 4.98 5 6 C2.4375 7.1875 2.4375 7.1875 0 8 C0 5.36 0 2.72 0 0 Z " fill="#E5E6E6" transform="translate(467,53)"/>
<path d="M0 0 C2.31 0 4.62 0 7 0 C7 1.32 7 2.64 7 4 C3.37673261 5.2077558 2.35853631 4.54311128 -1 3 C-0.67 2.01 -0.34 1.02 0 0 Z " fill="#192933" transform="translate(226,271)"/>
<path d="M0 0 C0 2.97 0 5.94 0 9 C-0.66 9 -1.32 9 -2 9 C-2 7.02 -2 5.04 -2 3 C-3.98 3.33 -5.96 3.66 -8 4 C-5.57415142 1.34311822 -3.76063134 0 0 0 Z " fill="#B5B6B3" transform="translate(477,257)"/>
<path d="M0 0 C0.33 0.66 0.66 1.32 1 2 C1.66 2.33 2.32 2.66 3 3 C2.34 3 1.68 3 1 3 C1 3.66 1 4.32 1 5 C1.66 5 2.32 5 3 5 C3 5.66 3 6.32 3 7 C2.4225 6.814375 1.845 6.62875 1.25 6.4375 C-1.20692525 5.95976454 -2.64397534 6.24270636 -5 7 C-5 5 -5 5 -4 4 C-4.33 3.34 -4.66 2.68 -5 2 C-3.35 2 -1.7 2 0 2 C0 1.34 0 0.68 0 0 Z " fill="#1F323A" transform="translate(198,243)"/>
<path d="M0 0 C2.05078125 0.03255208 4.1015625 0.06510417 6.15234375 0.09765625 C5.82234375 1.74765625 5.49234375 3.39765625 5.15234375 5.09765625 C4.16234375 5.09765625 3.17234375 5.09765625 2.15234375 5.09765625 C2.15234375 4.10765625 2.15234375 3.11765625 2.15234375 2.09765625 C1.16234375 2.09765625 0.17234375 2.09765625 -0.84765625 2.09765625 C-1.17765625 3.08765625 -1.50765625 4.07765625 -1.84765625 5.09765625 C-2.41015625 3.16015625 -2.41015625 3.16015625 -2.84765625 1.09765625 C-1.84765625 0.09765625 -1.84765625 0.09765625 0 0 Z " fill="#1B2D36" transform="translate(162.84765625,232.90234375)"/>
<path d="M0 0 C1.32 0 2.64 0 4 0 C4 3.11257569 3.82638376 5.10765685 3 8 C1.68 8 0.36 8 -1 8 C-1 7.34 -1 6.68 -1 6 C-0.34 5.67 0.32 5.34 1 5 C0.34 4.67 -0.32 4.34 -1 4 C-0.67 2.68 -0.34 1.36 0 0 Z " fill="#373A0E" transform="translate(388,168)"/>
<path d="M0 0 C0.66 0 1.32 0 2 0 C2.33 0.66 2.66 1.32 3 2 C3.66 1.67 4.32 1.34 5 1 C5.144375 1.78375 5.28875 2.5675 5.4375 3.375 C5.87798925 5.96421018 5.87798925 5.96421018 7 8 C5.68 7.34 4.36 6.68 3 6 C2.67 6.66 2.34 7.32 2 8 C1.34 8 0.68 8 0 8 C0 5.36 0 2.72 0 0 Z " fill="#2B3316" transform="translate(419,168)"/>
<path d="M0 0 C2.875 -0.125 2.875 -0.125 6 0 C6.66 0.66 7.32 1.32 8 2 C7.67 2.66 7.34 3.32 7 4 C6.34 4 5.68 4 5 4 C5 4.66 5 5.32 5 6 C4.34 6 3.68 6 3 6 C3 5.01 3 4.02 3 3 C2.01 3 1.02 3 0 3 C0 2.01 0 1.02 0 0 Z " fill="#D8D32F" transform="translate(99,146)"/>
<path d="M0 0 C0.33 0 0.66 0 1 0 C1 3.96 1 7.92 1 12 C3.31 12.33 5.62 12.66 8 13 C8 13.33 8 13.66 8 14 C-0.57142857 15.42857143 -0.57142857 15.42857143 -4 13 C-2.68 13 -1.36 13 0 13 C0 8.71 0 4.42 0 0 Z " fill="#4A595C" transform="translate(305,127)"/>
<path d="M0 0 C0.87527344 0.02578125 1.75054687 0.0515625 2.65234375 0.078125 C3.53019531 0.09359375 4.40804687 0.1090625 5.3125 0.125 C7.58984375 0.328125 7.58984375 0.328125 9.58984375 1.328125 C9.58984375 1.988125 9.58984375 2.648125 9.58984375 3.328125 C4.63984375 3.328125 -0.31015625 3.328125 -5.41015625 3.328125 C-2.41015625 0.328125 -2.41015625 0.328125 0 0 Z " fill="#424E23" transform="translate(96.41015625,114.671875)"/>
<path d="M0 0 C3.96 0 7.92 0 12 0 C12 0.99 12 1.98 12 3 C10.37509046 3.02698189 8.75005367 3.04638757 7.125 3.0625 C5.76761719 3.07990234 5.76761719 3.07990234 4.3828125 3.09765625 C2 3 2 3 0 2 C0 1.34 0 0.68 0 0 Z " fill="#1E2E38" transform="translate(113,271)"/>
<path d="M0 0 C1.32 0 2.64 0 4 0 C4.33 1.32 4.66 2.64 5 4 C3.125 5.0625 3.125 5.0625 1 6 C0.34 5.67 -0.32 5.34 -1 5 C-0.67 3.35 -0.34 1.7 0 0 Z " fill="#152119" transform="translate(282,157)"/>
<path d="M0 0 C1.32 0 2.64 0 4 0 C4 2.31 4 4.62 4 7 C3.34 5.68 2.68 4.36 2 3 C0.33657163 4.66342837 0.63951903 6.7825709 0.4375 9.0625 C0.35371094 9.98160156 0.26992188 10.90070312 0.18359375 11.84765625 C0.12300781 12.55792969 0.06242187 13.26820312 0 14 C-0.33 14 -0.66 14 -1 14 C-1.02705729 12.22925083 -1.04642195 10.45838289 -1.0625 8.6875 C-1.07410156 7.70136719 -1.08570313 6.71523438 -1.09765625 5.69921875 C-1 3 -1 3 0 0 Z " fill="#B0B7B7" transform="translate(409,40)"/>
<path d="M0 0 C1.65 0 3.3 0 5 0 C5 2.64 5 5.28 5 8 C4.67 7.01 4.34 6.02 4 5 C3.01 5 2.02 5 1 5 C0.67 6.32 0.34 7.64 0 9 C0 7.35 0 5.7 0 4 C0.99 4 1.98 4 3 4 C3 3.34 3 2.68 3 2 C2.01 2 1.02 2 0 2 C0 1.34 0 0.68 0 0 Z " fill="#BCBE2F" transform="translate(91,148)"/>
<path d="M0 0 C0.66 0.66 1.32 1.32 2 2 C1.67 2.66 1.34 3.32 1 4 C1.433125 3.505 1.86625 3.01 2.3125 2.5 C4 1 4 1 7 1 C7 2.32 7 3.64 7 5 C4.125 5.625 4.125 5.625 1 6 C0.34 5.34 -0.32 4.68 -1 4 C-0.625 1.875 -0.625 1.875 0 0 Z " fill="#1F3039" transform="translate(175,69)"/>
<path d="M0 0 C0.33 0 0.66 0 1 0 C1.33 3.3 1.66 6.6 2 10 C0.02 10.66 -1.96 11.32 -4 12 C-4.66 11.34 -5.32 10.68 -6 10 C-4.35 9.34 -2.7 8.68 -1 8 C-0.67 5.36 -0.34 2.72 0 0 Z " fill="#D7DAD8" transform="translate(444,59)"/>
<path d="M0 0 C0.66 0 1.32 0 2 0 C2 1.98 2 3.96 2 6 C3.32 6.66 4.64 7.32 6 8 C6 8.66 6 9.32 6 10 C1.125 8.125 1.125 8.125 0 7 C-0.04092937 4.66702567 -0.04241723 2.33294775 0 0 Z " fill="#E4E4E4" transform="translate(474,17)"/>
<path d="M0 0 C1.98 0.66 3.96 1.32 6 2 C5.67 3.32 5.34 4.64 5 6 C4.34 6 3.68 6 3 6 C3 5.34 3 4.68 3 4 C1.68 4.33 0.36 4.66 -1 5 C-0.67 3.35 -0.34 1.7 0 0 Z " fill="#7D7B23" transform="translate(438,269)"/>
<path d="M0 0 C1.32 0 2.64 0 4 0 C4.625 1.875 4.625 1.875 5 4 C4.34 4.66 3.68 5.32 3 6 C2.01 6 1.02 6 0 6 C0 4.02 0 2.04 0 0 Z " fill="#162618" transform="translate(256,157)"/>
<path d="M0 0 C0.66 0 1.32 0 2 0 C2.309375 1.11375 2.61875 2.2275 2.9375 3.375 C3.82326483 6.7945155 3.82326483 6.7945155 5 9 C3.35 9.33 1.7 9.66 0 10 C0 6.7 0 3.4 0 0 Z " fill="#0F1B21" transform="translate(205,131)"/>
<path d="M0 0 C1.5 1.3125 1.5 1.3125 3 3 C3 3.99 3 4.98 3 6 C1.02 6.66 -0.96 7.32 -3 8 C-1.125 1.125 -1.125 1.125 0 0 Z " fill="#859234" transform="translate(220,156)"/>
<path d="M0 0 C1.43088528 2.86177057 0.59991697 4.93375773 0 8 C-1.65 8.33 -3.3 8.66 -5 9 C-3.7508258 5.54074837 -2.32472205 2.85306797 0 0 Z " fill="#EAF0ED" transform="translate(415,31)"/>
<path d="M0 0 C1.65 0 3.3 0 5 0 C3.9024777 2.99324263 3.32317108 3.84610901 0.375 5.25 C-0.40875 5.4975 -1.1925 5.745 -2 6 C-1.34 4.02 -0.68 2.04 0 0 Z " fill="#D8DBDE" transform="translate(366,127)"/>
<path d="M0 0 C3.87132028 0.57352893 6.08172796 2.48704352 9 5 C8.67 5.99 8.34 6.98 8 8 C6.50260417 6.73046875 5.00520833 5.4609375 3.5078125 4.19140625 C1.99405921 2.9121848 1.99405921 2.9121848 0 2 C0 1.34 0 0.68 0 0 Z " fill="#C1C5C7" transform="translate(14,15)"/>
<path d="M0 0 C2.97 0 5.94 0 9 0 C8.01 1.485 8.01 1.485 7 3 C3.375 3.1875 3.375 3.1875 0 3 C0 2.01 0 1.02 0 0 Z " fill="#1D2E37" transform="translate(127,271)"/>
<path d="M0 0 C0 2.97 0 5.94 0 9 C-0.66 9 -1.32 9 -2 9 C-2 7.02 -2 5.04 -2 3 C-2.66 3 -3.32 3 -4 3 C-4 2.34 -4 1.68 -4 1 C-2 0 -2 0 0 0 Z " fill="#DDDEDC" transform="translate(460,257)"/>
<path d="M0 0 C2.97 0.33 5.94 0.66 9 1 C9 1.33 9 1.66 9 2 C7.35 2 5.7 2 4 2 C4 4.64 4 7.28 4 10 C3.67 10 3.34 10 3 10 C2.92652344 9.04287109 2.92652344 9.04287109 2.8515625 8.06640625 C2.77679688 7.24011719 2.70203125 6.41382813 2.625 5.5625 C2.55539063 4.73878906 2.48578125 3.91507813 2.4140625 3.06640625 C2.27742187 2.38449219 2.14078125 1.70257813 2 1 C1.34 0.67 0.68 0.34 0 0 Z " fill="#0C1913" transform="translate(228,154)"/>
<path d="M0 0 C0 0.99 0 1.98 0 3 C-2.31 3 -4.62 3 -7 3 C-7 2.01 -7 1.02 -7 0 C-2.25 -1.125 -2.25 -1.125 0 0 Z " fill="#EEF2F3" transform="translate(220,137)"/>
<path d="M0 0 C0.99 0 1.98 0 3 0 C3 1.65 3 3.3 3 5 C3.66 5.33 4.32 5.66 5 6 C3.35 6.33 1.7 6.66 0 7 C0 4.69 0 2.38 0 0 Z " fill="#F4F9F5" transform="translate(415,40)"/>
<path d="M0 0 C2.4375 0.75 2.4375 0.75 5 2 C5.8125 4.125 5.8125 4.125 6 6 C4.35 6 2.7 6 1 6 C0.67 4.02 0.34 2.04 0 0 Z " fill="#E3DC33" transform="translate(450,270)"/>
<path d="M0 0 C1.98 0 3.96 0 6 0 C6 1.32 6 2.64 6 4 C4.02 4 2.04 4 0 4 C0 2.68 0 1.36 0 0 Z " fill="#696A20" transform="translate(412,271)"/>
<path d="M0 0 C0 0.66 0 1.32 0 2 C-0.99 2.33 -1.98 2.66 -3 3 C-3 2.34 -3 1.68 -3 1 C-3.66 1 -4.32 1 -5 1 C-5.33 1.66 -5.66 2.32 -6 3 C-6 2.34 -6 1.68 -6 1 C-7.98 1 -9.96 1 -12 1 C-12 0.67 -12 0.34 -12 0 C-7.6835078 -0.76173392 -4.25566547 -1.16063604 0 0 Z " fill="#404313" transform="translate(491,271)"/>
<path d="M0 0 C1.98 0.495 1.98 0.495 4 1 C4 2.32 4 3.64 4 5 C2.35 4.67 0.7 4.34 -1 4 C-0.67 2.68 -0.34 1.36 0 0 Z " fill="#171919" transform="translate(246,131)"/>
<path d="M0 0 C0.66 0.33 1.32 0.66 2 1 C2 2.32 2 3.64 2 5 C-0.64 5 -3.28 5 -6 5 C-4.68 4.67 -3.36 4.34 -2 4 C-2 3.01 -2 2.02 -2 1 C-1.34 0.67 -0.68 0.34 0 0 Z " fill="#F7FCFC" transform="translate(344,129)"/>
<path d="M0 0 C1.65 0 3.3 0 5 0 C4 3 4 3 0.9375 4.6875 C-0.031875 5.120625 -1.00125 5.55375 -2 6 C-1.34 4.02 -0.68 2.04 0 0 Z " fill="#DADEE2" transform="translate(173,127)"/>
<path d="M0 0 C-0.33 1.32 -0.66 2.64 -1 4 C-1.33 3.67 -1.66 3.34 -2 3 C-2.33 3.66 -2.66 4.32 -3 5 C-3.66 4.67 -4.32 4.34 -5 4 C-4.67 3.34 -4.34 2.68 -4 2 C-5.32 2.33 -6.64 2.66 -8 3 C-8 2.34 -8 1.68 -8 1 C-5.29120665 -0.35439668 -2.99066732 -0.06501451 0 0 Z " fill="#1C2E37" transform="translate(183,46)"/>
<path d="M0 0 C1.65 0 3.3 0 5 0 C5 1.32 5 2.64 5 4 C3.35 4 1.7 4 0 4 C0 2.68 0 1.36 0 0 Z " fill="#FD2472" transform="translate(43,276)"/>
<path d="M0 0 C2.03833424 1.2739589 4.03852126 2.61061923 6 4 C6 4.66 6 5.32 6 6 C4.02 6 2.04 6 0 6 C0 4.02 0 2.04 0 0 Z " fill="#F7F2F3" transform="translate(0,275)"/>
<path d="M0 0 C0 1.98 0 3.96 0 6 C-1.32 6 -2.64 6 -4 6 C-4.33 4.35 -4.66 2.7 -5 1 C-1.125 0 -1.125 0 0 0 Z " fill="#9D9D2B" transform="translate(411,269)"/>
<path d="M0 0 C0.99 0.33 1.98 0.66 3 1 C2.34 3.31 1.68 5.62 1 8 C0.34 7.67 -0.32 7.34 -1 7 C-1 6.01 -1 5.02 -1 4 C-1.66 3.34 -2.32 2.68 -3 2 C-2.01 2 -1.02 2 0 2 C0 1.34 0 0.68 0 0 Z " fill="#C5C738" transform="translate(392,168)"/>
<path d="M0 0 C0.99 0.33 1.98 0.66 3 1 C3 2.65 3 4.3 3 6 C1.68 5.67 0.36 5.34 -1 5 C-0.67 3.35 -0.34 1.7 0 0 Z " fill="#1C2D36" transform="translate(222,69)"/>
<path d="M0 0 C0.33 1.32 0.66 2.64 1 4 C1.66 4 2.32 4 3 4 C3.1875 6.375 3.1875 6.375 3 9 C2.01 9.66 1.02 10.32 0 11 C0 7.37 0 3.74 0 0 Z " fill="#FAFCFA" transform="translate(443,32)"/>
<path d="M0 0 C1.32 0 2.64 0 4 0 C3.67 1.65 3.34 3.3 3 5 C2.01 5.33 1.02 5.66 0 6 C0 4.02 0 2.04 0 0 Z " fill="#192A33" transform="translate(150,35)"/>
<path d="M0 0 C0.99 0.33 1.98 0.66 3 1 C3 1.66 3 2.32 3 3 C4.32 3.33 5.64 3.66 7 4 C3.37 4 -0.26 4 -4 4 C-2.68 3.67 -1.36 3.34 0 3 C0 2.01 0 1.02 0 0 Z " fill="#E2DB2F" transform="translate(470,272)"/>
<path d="M0 0 C1.32 0.66 2.64 1.32 4 2 C3.01 2 2.02 2 1 2 C1 2.66 1 3.32 1 4 C1.66 4.33 2.32 4.66 3 5 C0.36 5 -2.28 5 -5 5 C-3.35 3.35 -1.7 1.7 0 0 Z " fill="#1D2E34" transform="translate(287,221)"/>
<path d="M0 0 C0.33 0.66 0.66 1.32 1 2 C1.99 2 2.98 2 4 2 C4.33 2.99 4.66 3.98 5 5 C3.35 5.33 1.7 5.66 0 6 C0 4.02 0 2.04 0 0 Z " fill="#192B35" transform="translate(188,220)"/>
<path d="M0 0 C1.32 0 2.64 0 4 0 C3 3 3 3 0 5 C-0.99 4.34 -1.98 3.68 -3 3 C-2.01 2.67 -1.02 2.34 0 2 C0 1.34 0 0.68 0 0 Z " fill="#8B8F25" transform="translate(491,271)"/>
<path d="M0 0 C2.64 0 5.28 0 8 0 C8 0.99 8 1.98 8 3 C5.36 3 2.72 3 0 3 C0 2.01 0 1.02 0 0 Z " fill="#1F3038" transform="translate(192,271)"/>
<path d="M0 0 C0.99 0 1.98 0 3 0 C3 1.98 3 3.96 3 6 C2.01 6 1.02 6 0 6 C0 4.02 0 2.04 0 0 Z " fill="#7A7C26" transform="translate(425,269)"/>
<path d="M0 0 C1.32 0 2.64 0 4 0 C4 1.65 4 3.3 4 5 C2.68 4.67 1.36 4.34 0 4 C0 2.68 0 1.36 0 0 Z " fill="#1D3039" transform="translate(202,245)"/>
<path d="M0 0 C1.98 1.65 3.96 3.3 6 5 C4.1875 5.6875 4.1875 5.6875 2 6 C0.25 4.5625 0.25 4.5625 -1 3 C-0.67 2.01 -0.34 1.02 0 0 Z " fill="#2C381A" transform="translate(113,145)"/>
<path d="M0 0 C0.99 0 1.98 0 3 0 C3 1.65 3 3.3 3 5 C1.68 4.67 0.36 4.34 -1 4 C-0.67 2.68 -0.34 1.36 0 0 Z " fill="#202A2A" transform="translate(378,131)"/>
<path d="M0 0 C0.99 0.33 1.98 0.66 3 1 C3 2.32 3 3.64 3 5 C1.68 5 0.36 5 -1 5 C-0.67 3.35 -0.34 1.7 0 0 Z " fill="#212B2F" transform="translate(197,131)"/>
<path d="M0 0 C0.99 0 1.98 0 3 0 C3 1.65 3 3.3 3 5 C1.68 5 0.36 5 -1 5 C-0.67 3.35 -0.34 1.7 0 0 Z " fill="#1F3039" transform="translate(189,58)"/>
<path d="M0 0 C2 3 2 3 2 5 C2.99 5.33 3.98 5.66 5 6 C3.02 6 1.04 6 -1 6 C-1.042721 4.33388095 -1.04063832 2.66617115 -1 1 C-0.67 0.67 -0.34 0.34 0 0 Z " fill="#E4DD2D" transform="translate(385,270)"/>
<path d="M0 0 C1.32 0 2.64 0 4 0 C4 0.66 4 1.32 4 2 C4.99 2 5.98 2 7 2 C6.67 2.99 6.34 3.98 6 5 C5.34 5 4.68 5 4 5 C4 4.34 4 3.68 4 3 C3.01 3 2.02 3 1 3 C0.67 2.01 0.34 1.02 0 0 Z " fill="#393C11" transform="translate(454,269)"/>
<path d="M0 0 C0.66 0 1.32 0 2 0 C2.33 0.99 2.66 1.98 3 3 C2.67 3.66 2.34 4.32 2 5 C2.66 5.33 3.32 5.66 4 6 C3.01 6.33 2.02 6.66 1 7 C-0.0625 4.625 -0.0625 4.625 -1 2 C-0.67 1.34 -0.34 0.68 0 0 Z " fill="#1D2F38" transform="translate(207,255)"/>
<path d="M0 0 C0 2.31 0 4.62 0 7 C-0.99 7.495 -0.99 7.495 -2 8 C-2.66 5.69 -3.32 3.38 -4 1 C-2 0 -2 0 0 0 Z " fill="#C2BE31" transform="translate(410,168)"/>
<path d="M0 0 C0.66 0.33 1.32 0.66 2 1 C1.67 1.33 1.34 1.66 1 2 C1.99 2.66 2.98 3.32 4 4 C4 4.66 4 5.32 4 6 C2.35 5.67 0.7 5.34 -1 5 C-0.67 3.35 -0.34 1.7 0 0 Z " fill="#E6DE2C" transform="translate(107,152)"/>
<path d="M0 0 C1.98 0 3.96 0 6 0 C6 0.99 6 1.98 6 3 C3.03 2.505 3.03 2.505 0 2 C0 1.34 0 0.68 0 0 Z " fill="#E2DE2C" transform="translate(87,134)"/>
</svg>
